<?xml version="1.0" encoding="utf-8"?>
<!-- Generator: Adobe Illustrator 27.2.0, SVG Export Plug-In . SVG Version: 6.00 Build 0)  -->
<svg version="1.1" id="Layer_1" xmlns="http://www.w3.org/2000/svg" xmlns:xlink="http://www.w3.org/1999/xlink" x="0px" y="0px"
	 viewBox="0 0 864 144" style="enable-background:new 0 0 864 144;" xml:space="preserve">
<style type="text/css">
	.st0{fill:#FFFFFF;}
	.st1{fill:#AB63FA;}
	.st2{fill:#00CC96;}
	.st3{fill:#636EFA;}
	.st4{fill:#EF553B;}
	.st5{display:none;fill:#41B88E;}
</style>
<g>
	<g>
		<path class="st0" d="M66.92,90.49V39.6c0-2.4,1.2-3.6,3.6-3.6c2.4,0,3.6,1.2,3.6,3.6v64.79c0,2.4-1.2,3.6-3.6,3.6
			c-1.45,0-2.51-0.61-3.17-1.8L38.12,53.46v50.94c0,2.4-1.2,3.6-3.6,3.6c-2.4,0-3.6-1.2-3.6-3.6V39.6c0-2.4,1.2-3.6,3.6-3.6
			c1.42,0,2.53,0.71,3.33,2.13L66.92,90.49z"/>
		<path class="st0" d="M131.71,86.4c0,5.97-2.11,11.06-6.33,15.27c-4.22,4.22-9.31,6.33-15.27,6.33c-5.96,0-11.06-2.11-15.27-6.33
			s-6.33-9.3-6.33-15.27V57.6c0-5.96,2.11-11.06,6.33-15.27S104.15,36,110.11,36c6,0,11.1,2.1,15.3,6.31c4.2,4.19,6.3,9.29,6.3,15.3
			V86.4z M124.51,86.4V57.6c0-4.04-1.39-7.44-4.17-10.23c-2.78-2.78-6.19-4.18-10.23-4.18c-4.04,0-7.44,1.39-10.22,4.18
			c-2.78,2.78-4.17,6.19-4.17,10.23V86.4c0,4.04,1.39,7.44,4.17,10.23c2.78,2.78,6.19,4.18,10.22,4.18c4.04,0,7.44-1.39,10.23-4.18
			C123.12,93.84,124.51,90.43,124.51,86.4z"/>
		<path class="st0" d="M171.31,108c-1.74,0-2.93-0.93-3.55-2.78l-21.49-64.47c-0.11-0.33-0.16-0.71-0.16-1.15c0-2.4,1.2-3.6,3.6-3.6
			c1.75,0,2.89,0.82,3.44,2.46l18.16,54.49l18.16-54.49c0.54-1.64,1.69-2.46,3.44-2.46c2.4,0,3.6,1.2,3.6,3.6
			c0,0.43-0.05,0.82-0.16,1.15l-21.49,64.47C174.24,107.07,173.06,108,171.31,108z"/>
		<path class="st0" d="M210.9,104.4V39.6c0-2.4,1.2-3.6,3.6-3.6h28.8c2.4,0,3.6,1.2,3.6,3.6c0,2.4-1.2,3.6-3.6,3.6h-25.2v21.6h18
			c2.4,0,3.6,1.2,3.6,3.6c0,2.41-1.2,3.6-3.6,3.6h-18v28.8h25.2c2.4,0,3.6,1.2,3.6,3.6c0,2.4-1.2,3.6-3.6,3.6h-28.8
			C212.1,108,210.9,106.8,210.9,104.4z"/>
		<path class="st0" d="M261.3,39.6c0-2.4,1.2-3.6,3.6-3.6c2.4,0,3.6,1.2,3.6,3.6v61.2h25.2c2.4,0,3.6,1.2,3.6,3.6
			c0,2.4-1.2,3.6-3.6,3.6h-28.8c-2.4,0-3.6-1.2-3.6-3.6V39.6z"/>
		<path class="st0" d="M311.7,39.6c0-2.4,1.2-3.6,3.6-3.6h36c2.4,0,3.6,1.2,3.6,3.6c0,2.4-1.2,3.6-3.6,3.6h-14.4v61.2
			c0,2.4-1.2,3.6-3.6,3.6c-2.4,0-3.6-1.2-3.6-3.6V43.2h-14.4C312.9,43.2,311.7,42,311.7,39.6z"/>
		<path class="st0" d="M398.09,72v32.4c0,2.4-1.2,3.6-3.6,3.6c-2.4,0-3.6-1.2-3.6-3.6V72l-20.94-30.32
			c-0.43-0.61-0.66-1.31-0.66-2.07c0-2.4,1.2-3.6,3.6-3.6c1.31,0,2.31,0.52,3,1.53l18.6,27.05l18.6-27.05
			c0.69-1.02,1.69-1.53,3-1.53c2.4,0,3.6,1.2,3.6,3.6c0,0.76-0.22,1.46-0.66,2.07L398.09,72z"/>
		<path class="st0" d="M462.34,108c-2.4,0-3.6-1.2-3.6-3.6V39.6c0-2.4,1.2-3.6,3.6-3.6c2.4,0,3.6,1.2,3.6,3.6v64.79
			C465.94,106.8,464.74,108,462.34,108z"/>
		<path class="st0" d="M516.34,90.49V39.6c0-2.4,1.2-3.6,3.6-3.6s3.6,1.2,3.6,3.6v64.79c0,2.4-1.2,3.6-3.6,3.6
			c-1.45,0-2.51-0.61-3.17-1.8l-29.23-52.74v50.94c0,2.4-1.2,3.6-3.6,3.6c-2.4,0-3.6-1.2-3.6-3.6V39.6c0-2.4,1.2-3.6,3.6-3.6
			c1.42,0,2.53,0.71,3.33,2.13L516.34,90.49z"/>
		<path class="st0" d="M581.13,90c0,4.95-1.76,9.18-5.29,12.71c-3.53,3.52-7.76,5.29-12.71,5.29c-8.87,0-16.74-2.62-23.61-7.85
			c-1.06-0.8-1.58-1.79-1.58-2.95c0-0.98,0.36-1.83,1.06-2.54c0.71-0.7,1.56-1.06,2.53-1.06c0.58,0,1.27,0.22,2.08,0.66
			c2.11,1.28,5.42,2.95,9.93,5.02c2.94,1.02,6.15,1.53,9.6,1.53c2.98,0,5.53-1.06,7.64-3.17c2.11-2.1,3.17-4.65,3.17-7.63
			c0-4.4-2-7.62-6-9.66L547.7,69.99c-6.51-3.35-9.77-8.67-9.77-15.99c0-4.95,1.76-9.18,5.29-12.71c3.53-3.52,7.76-5.29,12.71-5.29
			c8.51,0,15,1.31,19.47,3.93c1.42,0.84,2.13,1.92,2.13,3.27c0,0.98-0.36,1.83-1.06,2.54c-0.71,0.71-1.56,1.06-2.53,1.06
			c-0.36,0-0.87-0.12-1.53-0.38c-5.53-2.15-11.02-3.22-16.47-3.22c-2.98,0-5.53,1.06-7.64,3.17c-2.11,2.1-3.16,4.65-3.16,7.63
			c0,4.4,1.96,7.6,5.89,9.6l20.24,10.37C577.84,77.35,581.13,82.69,581.13,90z"/>
		<path class="st0" d="M599.13,108c-2.4,0-3.6-1.2-3.6-3.6V39.6c0-2.4,1.2-3.6,3.6-3.6c2.4,0,3.6,1.2,3.6,3.6v64.79
			C602.73,106.8,601.53,108,599.13,108z"/>
		<path class="st0" d="M635.13,100.8h18V72h-7.2c-2.4,0-3.6-1.2-3.6-3.6c0-2.4,1.2-3.6,3.6-3.6h10.8c2.4,0,3.6,1.2,3.6,3.6v36
			c0,2.4-1.2,3.6-3.6,3.6h-21.6c-4.98,0-9.23-1.75-12.73-5.27c-3.51-3.51-5.27-7.76-5.27-12.73V54c0-4.98,1.76-9.22,5.27-12.73
			c3.51-3.51,7.75-5.27,12.73-5.27h21.6c2.4,0,3.6,1.2,3.6,3.6c0,2.4-1.2,3.6-3.6,3.6h-21.6c-3.02,0-5.57,1.06-7.67,3.17
			c-2.09,2.1-3.13,4.65-3.13,7.63v36c0,3.01,1.04,5.57,3.13,7.67C629.56,99.75,632.11,100.8,635.13,100.8z"/>
		<path class="st0" d="M674.72,104.4V39.6c0-2.4,1.2-3.6,3.6-3.6c2.4,0,3.6,1.2,3.6,3.6v25.2h28.8V39.6c0-2.4,1.2-3.6,3.6-3.6
			c2.4,0,3.6,1.2,3.6,3.6v64.79c0,2.4-1.2,3.6-3.6,3.6c-2.4,0-3.6-1.2-3.6-3.6V72h-28.8v32.4c0,2.4-1.2,3.6-3.6,3.6
			C675.92,108,674.72,106.8,674.72,104.4z"/>
		<path class="st0" d="M732.32,39.6c0-2.4,1.2-3.6,3.6-3.6h36c2.4,0,3.6,1.2,3.6,3.6c0,2.4-1.2,3.6-3.6,3.6h-14.4v61.2
			c0,2.4-1.2,3.6-3.6,3.6c-2.4,0-3.6-1.2-3.6-3.6V43.2h-14.4C733.52,43.2,732.32,42,732.32,39.6z"/>
		<path class="st0" d="M833.11,90c0,4.95-1.76,9.18-5.29,12.71c-3.53,3.52-7.76,5.29-12.71,5.29c-8.87,0-16.74-2.62-23.61-7.85
			c-1.06-0.8-1.58-1.79-1.58-2.95c0-0.98,0.36-1.83,1.06-2.54c0.71-0.7,1.56-1.06,2.53-1.06c0.58,0,1.27,0.22,2.08,0.66
			c2.11,1.28,5.42,2.95,9.93,5.02c2.94,1.02,6.15,1.53,9.6,1.53c2.98,0,5.53-1.06,7.64-3.17c2.11-2.1,3.17-4.65,3.17-7.63
			c0-4.4-2-7.62-6-9.66l-20.23-10.36c-6.51-3.35-9.77-8.67-9.77-15.99c0-4.95,1.76-9.18,5.29-12.71c3.53-3.52,7.76-5.29,12.71-5.29
			c8.51,0,15,1.31,19.47,3.93c1.42,0.84,2.13,1.92,2.13,3.27c0,0.98-0.36,1.83-1.06,2.54c-0.71,0.71-1.56,1.06-2.53,1.06
			c-0.36,0-0.87-0.12-1.53-0.38c-5.53-2.15-11.02-3.22-16.47-3.22c-2.98,0-5.53,1.06-7.64,3.17c-2.11,2.1-3.16,4.65-3.16,7.63
			c0,4.4,1.96,7.6,5.89,9.6l20.24,10.37C829.82,77.35,833.11,82.69,833.11,90z"/>
	</g>
	<g>
		<path class="st1" d="M70.48,108c-2.4,0-3.6-1.2-3.6-3.6V39.6c0-2.4,1.2-3.6,3.6-3.6c2.4,0,3.6,1.2,3.6,3.6v64.79
			C74.09,106.8,72.89,108,70.48,108z"/>
		<path class="st2" d="M34.49,108c-2.4,0-3.6-1.2-3.6-3.6V39.6c0-2.4,1.2-3.6,3.6-3.6c2.4,0,3.6,1.2,3.6,3.6v64.79
			C38.09,106.8,36.89,108,34.49,108z"/>
		<path class="st3" d="M46.11,108c-2.4,0-3.6-1.2-3.6-3.6V61.29c0-2.4,1.2-3.6,3.6-3.6c2.4,0,3.6,1.2,3.6,3.6v43.11
			C49.72,106.8,48.52,108,46.11,108z"/>
		<path class="st4" d="M58.25,108c-2.4,0-3.6-1.2-3.6-3.6V83.05c0-2.4,1.2-3.6,3.6-3.6c2.4,0,3.6,1.2,3.6,3.6v21.34
			C61.85,106.8,60.65,108,58.25,108z"/>
		<path class="st5" d="M519.93,108c-2.4,0-3.6-1.2-3.6-3.6V39.6c0-2.4,1.2-3.6,3.6-3.6c2.4,0,3.6,1.2,3.6,3.6v64.79
			C523.53,106.8,522.33,108,519.93,108z"/>
		<path class="st5" d="M483.93,108c-2.4,0-3.6-1.2-3.6-3.6V39.6c0-2.4,1.2-3.6,3.6-3.6c2.4,0,3.6,1.2,3.6,3.6v64.79
			C487.54,106.8,486.34,108,483.93,108z"/>
		<path class="st5" d="M495.77,108c-2.4,0-3.6-1.2-3.6-3.6V61.29c0-2.4,1.2-3.6,3.6-3.6c2.4,0,3.6,1.2,3.6,3.6v43.11
			C499.37,106.8,498.17,108,495.77,108z"/>
		<path class="st5" d="M507.9,108c-2.4,0-3.6-1.2-3.6-3.6V83.05c0-2.4,1.2-3.6,3.6-3.6c2.4,0,3.6,1.2,3.6,3.6v21.34
			C511.51,106.8,510.31,108,507.9,108z"/>
	</g>
</g>
</svg>
