<?xml version="1.0" encoding="utf-8"?>
<!-- Generator: Adobe Illustrator 27.2.0, SVG Export Plug-In . SVG Version: 6.00 Build 0)  -->
<svg version="1.1" id="Layer_1" xmlns="http://www.w3.org/2000/svg" xmlns:xlink="http://www.w3.org/1999/xlink" x="0px" y="0px"
	 viewBox="0 0 648 144" style="enable-background:new 0 0 648 144;" xml:space="preserve">
<style type="text/css">
	.st0{display:none;}
	.st1{display:inline;}
	.st2{fill:#221F1F;}
	.st3{fill:#AB63FA;}
	.st4{fill:#00CC96;}
	.st5{fill:#636EFA;}
	.st6{fill:#EF553B;}
	.st7{display:none;fill:#41B88E;}
	.st8{display:inline;fill:#FFFFFF;}
	.st9{display:inline;fill:#221F1F;}
	.st10{display:inline;fill:#00CC96;}
	.st11{display:inline;fill:#636EFA;}
	.st12{display:inline;fill:#C6C7C8;}
	.st13{display:inline;fill:#EF553B;}
	.st14{fill:#C7C8CA;}
	.st15{fill:#211E1F;}
</style>
<g class="st0">
	<g class="st1">
		<path class="st2" d="M-113.08,90.49V39.6c0-2.4,1.2-3.6,3.6-3.6s3.6,1.2,3.6,3.6v64.79c0,2.4-1.2,3.6-3.6,3.6
			c-1.45,0-2.51-0.61-3.17-1.8l-29.23-52.73v50.94c0,2.4-1.2,3.6-3.6,3.6c-2.4,0-3.6-1.2-3.6-3.6V39.6c0-2.4,1.2-3.6,3.6-3.6
			c1.42,0,2.53,0.71,3.33,2.13L-113.08,90.49z"/>
		<path class="st2" d="M-48.29,86.4c0,5.97-2.11,11.06-6.33,15.27c-4.22,4.22-9.31,6.33-15.27,6.33s-11.06-2.11-15.27-6.33
			s-6.33-9.3-6.33-15.27V57.6c0-5.96,2.11-11.06,6.33-15.27S-75.85,36-69.89,36c6,0,11.1,2.1,15.3,6.31c4.2,4.19,6.3,9.29,6.3,15.3
			V86.4z M-55.49,86.4V57.6c0-4.04-1.39-7.44-4.17-10.23c-2.78-2.78-6.19-4.18-10.23-4.18s-7.44,1.39-10.22,4.18
			c-2.78,2.78-4.17,6.19-4.17,10.23v28.8c0,4.04,1.39,7.44,4.17,10.23c2.78,2.78,6.19,4.18,10.22,4.18c4.04,0,7.44-1.39,10.23-4.18
			C-56.88,93.84-55.49,90.43-55.49,86.4z"/>
		<path class="st2" d="M-8.69,108c-1.74,0-2.93-0.93-3.55-2.78l-21.49-64.47c-0.11-0.33-0.16-0.71-0.16-1.15c0-2.4,1.2-3.6,3.6-3.6
			c1.75,0,2.89,0.82,3.44,2.46l18.16,54.49L9.47,38.46c0.54-1.64,1.69-2.46,3.44-2.46c2.4,0,3.6,1.2,3.6,3.6
			c0,0.43-0.05,0.82-0.16,1.15l-21.49,64.47C-5.76,107.07-6.94,108-8.69,108z"/>
		<path class="st2" d="M30.9,104.4V39.6c0-2.4,1.2-3.6,3.6-3.6h28.8c2.4,0,3.6,1.2,3.6,3.6c0,2.4-1.2,3.6-3.6,3.6H38.1v21.6h18
			c2.4,0,3.6,1.2,3.6,3.6c0,2.41-1.2,3.6-3.6,3.6h-18v28.8h25.2c2.4,0,3.6,1.2,3.6,3.6s-1.2,3.6-3.6,3.6H34.5
			C32.1,108,30.9,106.8,30.9,104.4z"/>
		<path class="st2" d="M81.3,39.6c0-2.4,1.2-3.6,3.6-3.6s3.6,1.2,3.6,3.6v61.2h25.2c2.4,0,3.6,1.2,3.6,3.6s-1.2,3.6-3.6,3.6H84.9
			c-2.4,0-3.6-1.2-3.6-3.6V39.6L81.3,39.6z"/>
		<path class="st2" d="M131.7,39.6c0-2.4,1.2-3.6,3.6-3.6h36c2.4,0,3.6,1.2,3.6,3.6c0,2.4-1.2,3.6-3.6,3.6h-14.4v61.2
			c0,2.4-1.2,3.6-3.6,3.6s-3.6-1.2-3.6-3.6V43.2h-14.4C132.9,43.2,131.7,42,131.7,39.6z"/>
		<path class="st2" d="M218.09,72v32.4c0,2.4-1.2,3.6-3.6,3.6s-3.6-1.2-3.6-3.6V72l-20.94-30.32c-0.43-0.61-0.66-1.31-0.66-2.07
			c0-2.4,1.2-3.6,3.6-3.6c1.31,0,2.31,0.52,3,1.53l18.6,27.05l18.6-27.05c0.69-1.02,1.69-1.53,3-1.53c2.4,0,3.6,1.2,3.6,3.6
			c0,0.76-0.22,1.46-0.66,2.07L218.09,72z"/>
		<path class="st2" d="M282.34,108c-2.4,0-3.6-1.2-3.6-3.6V39.6c0-2.4,1.2-3.6,3.6-3.6s3.6,1.2,3.6,3.6v64.79
			C285.94,106.8,284.74,108,282.34,108z"/>
		<path class="st2" d="M336.34,90.49V39.6c0-2.4,1.2-3.6,3.6-3.6s3.6,1.2,3.6,3.6v64.79c0,2.4-1.2,3.6-3.6,3.6
			c-1.45,0-2.51-0.61-3.17-1.8l-29.23-52.74v50.94c0,2.4-1.2,3.6-3.6,3.6s-3.6-1.2-3.6-3.6V39.6c0-2.4,1.2-3.6,3.6-3.6
			c1.42,0,2.53,0.71,3.33,2.13L336.34,90.49z"/>
		<path class="st2" d="M401.13,90c0,4.95-1.76,9.18-5.29,12.71c-3.53,3.52-7.76,5.29-12.71,5.29c-8.87,0-16.74-2.62-23.61-7.85
			c-1.06-0.8-1.58-1.79-1.58-2.95c0-0.98,0.36-1.83,1.06-2.54c0.71-0.7,1.56-1.06,2.53-1.06c0.58,0,1.27,0.22,2.08,0.66
			c2.11,1.28,5.42,2.95,9.93,5.02c2.94,1.02,6.15,1.53,9.6,1.53c2.98,0,5.53-1.06,7.64-3.17c2.11-2.1,3.17-4.65,3.17-7.63
			c0-4.4-2-7.62-6-9.66L367.7,69.99c-6.51-3.35-9.77-8.67-9.77-15.99c0-4.95,1.76-9.18,5.29-12.71c3.53-3.52,7.76-5.29,12.71-5.29
			c8.51,0,15,1.31,19.47,3.93c1.42,0.84,2.13,1.92,2.13,3.27c0,0.98-0.36,1.83-1.06,2.54c-0.71,0.71-1.56,1.06-2.53,1.06
			c-0.36,0-0.87-0.12-1.53-0.38c-5.53-2.15-11.02-3.22-16.47-3.22c-2.98,0-5.53,1.06-7.64,3.17c-2.11,2.1-3.16,4.65-3.16,7.63
			c0,4.4,1.96,7.6,5.89,9.6l20.24,10.37C397.84,77.35,401.13,82.69,401.13,90z"/>
		<path class="st2" d="M419.13,108c-2.4,0-3.6-1.2-3.6-3.6V39.6c0-2.4,1.2-3.6,3.6-3.6s3.6,1.2,3.6,3.6v64.79
			C422.73,106.8,421.53,108,419.13,108z"/>
		<path class="st2" d="M455.13,100.8h18V72h-7.2c-2.4,0-3.6-1.2-3.6-3.6s1.2-3.6,3.6-3.6h10.8c2.4,0,3.6,1.2,3.6,3.6v36
			c0,2.4-1.2,3.6-3.6,3.6h-21.6c-4.98,0-9.23-1.75-12.73-5.27c-3.51-3.51-5.27-7.76-5.27-12.73V54c0-4.98,1.76-9.22,5.27-12.73
			S450.15,36,455.13,36h21.6c2.4,0,3.6,1.2,3.6,3.6c0,2.4-1.2,3.6-3.6,3.6h-21.6c-3.02,0-5.57,1.06-7.67,3.17
			c-2.09,2.1-3.13,4.65-3.13,7.63v36c0,3.01,1.04,5.57,3.13,7.67C449.56,99.75,452.11,100.8,455.13,100.8z"/>
		<path class="st2" d="M494.72,104.4V39.6c0-2.4,1.2-3.6,3.6-3.6s3.6,1.2,3.6,3.6v25.2h28.8V39.6c0-2.4,1.2-3.6,3.6-3.6
			c2.4,0,3.6,1.2,3.6,3.6v64.79c0,2.4-1.2,3.6-3.6,3.6c-2.4,0-3.6-1.2-3.6-3.6V72h-28.8v32.4c0,2.4-1.2,3.6-3.6,3.6
			S494.72,106.8,494.72,104.4z"/>
		<path class="st2" d="M552.32,39.6c0-2.4,1.2-3.6,3.6-3.6h36c2.4,0,3.6,1.2,3.6,3.6c0,2.4-1.2,3.6-3.6,3.6h-14.4v61.2
			c0,2.4-1.2,3.6-3.6,3.6c-2.4,0-3.6-1.2-3.6-3.6V43.2h-14.4C553.52,43.2,552.32,42,552.32,39.6z"/>
		<path class="st2" d="M653.11,90c0,4.95-1.76,9.18-5.29,12.71c-3.53,3.52-7.76,5.29-12.71,5.29c-8.87,0-16.74-2.62-23.61-7.85
			c-1.06-0.8-1.58-1.79-1.58-2.95c0-0.98,0.36-1.83,1.06-2.54c0.71-0.7,1.56-1.06,2.53-1.06c0.58,0,1.27,0.22,2.08,0.66
			c2.11,1.28,5.42,2.95,9.93,5.02c2.94,1.02,6.15,1.53,9.6,1.53c2.98,0,5.53-1.06,7.64-3.17c2.11-2.1,3.17-4.65,3.17-7.63
			c0-4.4-2-7.62-6-9.66L619.7,69.99c-6.51-3.35-9.77-8.67-9.77-15.99c0-4.95,1.76-9.18,5.29-12.71c3.53-3.52,7.76-5.29,12.71-5.29
			c8.51,0,15,1.31,19.47,3.93c1.42,0.84,2.13,1.92,2.13,3.27c0,0.98-0.36,1.83-1.06,2.54c-0.71,0.71-1.56,1.06-2.53,1.06
			c-0.36,0-0.87-0.12-1.53-0.38c-5.53-2.15-11.02-3.22-16.47-3.22c-2.98,0-5.53,1.06-7.64,3.17c-2.11,2.1-3.16,4.65-3.16,7.63
			c0,4.4,1.96,7.6,5.89,9.6l20.24,10.37C649.82,77.35,653.11,82.69,653.11,90z"/>
	</g>
	<g class="st1">
		<path class="st3" d="M-109.52,108c-2.4,0-3.6-1.2-3.6-3.6V39.6c0-2.4,1.2-3.6,3.6-3.6s3.6,1.2,3.6,3.6v64.79
			C-105.91,106.8-107.11,108-109.52,108z"/>
		<path class="st4" d="M-145.51,108c-2.4,0-3.6-1.2-3.6-3.6V39.6c0-2.4,1.2-3.6,3.6-3.6c2.4,0,3.6,1.2,3.6,3.6v64.79
			C-141.91,106.8-143.11,108-145.51,108z"/>
		<path class="st5" d="M-133.89,108c-2.4,0-3.6-1.2-3.6-3.6V61.29c0-2.4,1.2-3.6,3.6-3.6c2.4,0,3.6,1.2,3.6,3.6v43.11
			C-130.28,106.8-131.48,108-133.89,108z"/>
		<path class="st6" d="M-121.75,108c-2.4,0-3.6-1.2-3.6-3.6V83.05c0-2.4,1.2-3.6,3.6-3.6s3.6,1.2,3.6,3.6v21.34
			C-118.15,106.8-119.35,108-121.75,108z"/>
		<path class="st7" d="M339.93,108c-2.4,0-3.6-1.2-3.6-3.6V39.6c0-2.4,1.2-3.6,3.6-3.6s3.6,1.2,3.6,3.6v64.79
			C343.53,106.8,342.33,108,339.93,108z"/>
		<path class="st7" d="M303.93,108c-2.4,0-3.6-1.2-3.6-3.6V39.6c0-2.4,1.2-3.6,3.6-3.6s3.6,1.2,3.6,3.6v64.79
			C307.54,106.8,306.34,108,303.93,108z"/>
		<path class="st7" d="M315.77,108c-2.4,0-3.6-1.2-3.6-3.6V61.29c0-2.4,1.2-3.6,3.6-3.6s3.6,1.2,3.6,3.6v43.11
			C319.37,106.8,318.17,108,315.77,108z"/>
		<path class="st7" d="M327.9,108c-2.4,0-3.6-1.2-3.6-3.6V83.05c0-2.4,1.2-3.6,3.6-3.6s3.6,1.2,3.6,3.6v21.34
			C331.51,106.8,330.31,108,327.9,108z"/>
	</g>
</g>
<g class="st0">
	<path class="st8" d="M154.77,107.81c-2.39,0-3.59-1.2-3.59-3.59V71.9c0-2.39,1.2-3.59,3.59-3.59c2.4,0,3.59,1.2,3.59,3.59v32.31
		C158.37,106.61,157.17,107.81,154.77,107.81z"/>
	<path class="st8" d="M176.31,107.81c-2.39,0-3.59-1.2-3.59-3.59V43.65c0-2.39,1.2-3.59,3.59-3.59c2.4,0,3.59,1.2,3.59,3.59v60.56
		C179.91,106.61,178.71,107.81,176.31,107.81z"/>
	<path class="st8" d="M165.54,107.81c-2.39,0-3.59-1.2-3.59-3.59V56.45c0-2.39,1.2-3.59,3.59-3.59c2.4,0,3.59,1.2,3.59,3.59v47.76
		C169.14,106.61,167.94,107.81,165.54,107.81z"/>
	<g class="st1">
		<path class="st2" d="M248.13,39.59v46.68c0,5.95-2.1,11.03-6.31,15.23s-9.29,6.31-15.23,6.31s-11.03-2.1-15.23-6.31
			s-6.31-9.29-6.31-15.23V39.59c0-2.39,1.2-3.59,3.59-3.59c2.4,0,3.59,1.19,3.59,3.59v46.68c0,4.03,1.38,7.42,4.16,10.2
			c2.77,2.77,6.17,4.16,10.2,4.16s7.42-1.39,10.2-4.16c2.77-2.78,4.16-6.17,4.16-10.2V39.59c0-2.39,1.2-3.59,3.59-3.59
			S248.13,37.2,248.13,39.59z"/>
		<path class="st2" d="M305.57,89.85c0,4.93-1.76,9.16-5.28,12.68c-3.52,3.52-7.74,5.28-12.68,5.28c-8.85,0-16.7-2.61-23.55-7.83
			c-1.05-0.79-1.58-1.77-1.58-2.93c0-0.98,0.36-1.83,1.06-2.53c0.71-0.71,1.55-1.06,2.53-1.06c0.58,0,1.27,0.22,2.07,0.65
			c2.1,1.27,5.4,2.94,9.9,5.01c2.94,1.01,6.13,1.52,9.57,1.52c2.97,0,5.51-1.05,7.62-3.15c2.1-2.11,3.16-4.64,3.16-7.62
			c0-4.39-2-7.6-5.99-9.62l-20.18-10.34c-6.49-3.33-9.74-8.65-9.74-15.93c0-4.93,1.76-9.16,5.28-12.68s7.74-5.28,12.68-5.28
			c8.49,0,14.96,1.31,19.42,3.91c1.42,0.84,2.12,1.93,2.12,3.27c0,0.98-0.36,1.82-1.06,2.53c-0.71,0.7-1.55,1.06-2.53,1.06
			c-0.36,0-0.87-0.13-1.52-0.38c-5.51-2.14-10.99-3.21-16.43-3.21c-2.97,0-5.51,1.05-7.62,3.15c-2.1,2.11-3.15,4.65-3.15,7.62
			c0,4.39,1.96,7.58,5.87,9.57l20.18,10.33C302.29,77.23,305.57,82.57,305.57,89.85z"/>
		<path class="st2" d="M323.52,107.8c-2.39,0-3.59-1.19-3.59-3.59V39.59c0-2.39,1.2-3.59,3.59-3.59c2.4,0,3.59,1.19,3.59,3.59v64.63
			C327.12,106.61,325.92,107.8,323.52,107.8z"/>
		<path class="st2" d="M373.78,36c2.39,0,3.59,1.19,3.59,3.59s-1.2,3.59-3.59,3.59h-14.36c-3.01,0-5.56,1.05-7.64,3.15
			c-2.08,2.11-3.12,4.65-3.12,7.62v35.89c0,2.98,1.05,5.51,3.15,7.62c2.1,2.1,4.64,3.15,7.62,3.15h14.36c2.39,0,3.59,1.2,3.59,3.59
			s-1.2,3.59-3.59,3.59h-14.36c-4.97,0-9.2-1.75-12.7-5.24c-3.5-3.5-5.25-7.73-5.25-12.71V53.96c0-4.97,1.75-9.2,5.25-12.7
			s7.73-5.25,12.7-5.25L373.78,36L373.78,36z"/>
		<path class="st2" d="M187.1,36c2.39,0,3.59,1.19,3.59,3.59v64.63c0,2.39-1.2,3.59-3.59,3.59s-3.59-1.19-3.59-3.59V51.4
			l-14.63,21.92c-0.98,1.45-2.09,2.17-3.32,2.17c-1.27,0-2.39-0.73-3.37-2.17L147.61,51.4v52.82c0,2.39-1.2,3.59-3.59,3.59
			s-3.59-1.19-3.59-3.59V39.59c0-2.39,1.2-3.59,3.59-3.59c1.31,0,2.36,0.6,3.16,1.8l18.38,27.57l18.49-27.79
			C184.74,36.53,185.76,36,187.1,36z"/>
	</g>
	<path class="st9" d="M187.08,107.81c-2.39,0-3.59-1.2-3.59-3.59V39.59c0-2.39,1.2-3.59,3.59-3.59c2.4,0,3.59,1.2,3.59,3.59v64.62
		C190.68,106.61,189.48,107.81,187.08,107.81z"/>
	<path class="st10" d="M144.01,107.81c-2.39,0-3.59-1.2-3.59-3.59V39.59c0-2.39,1.2-3.59,3.59-3.59c2.4,0,3.59,1.2,3.59,3.59v64.62
		C147.6,106.61,146.4,107.81,144.01,107.81z"/>
	
		<ellipse transform="matrix(0.9329 -0.3601 0.3601 0.9329 -29.8946 55.132)" class="st10" cx="133.02" cy="107.8" rx="15.03" ry="11.14"/>
</g>
<g class="st0">
	<path class="st8" d="M171.99,108.23c-2.4,0-3.6-1.2-3.6-3.6V70.38c0-2.4,1.2-3.6,3.6-3.6s3.6,1.2,3.6,3.6v34.24
		C175.59,107.02,174.39,108.23,171.99,108.23z"/>
	<path class="st8" d="M147.62,108.23c-2.4,0-3.6-1.2-3.6-3.6V60.59c0-2.4,1.2-3.6,3.6-3.6s3.6,1.2,3.6,3.6v44.04
		C151.22,107.02,150.02,108.23,147.62,108.23z"/>
	<path class="st8" d="M159.75,108.23c-2.4,0-3.6-1.2-3.6-3.6v-48.6c0-2.4,1.2-3.6,3.6-3.6s3.6,1.2,3.6,3.6v48.6
		C163.35,107.02,162.15,108.23,159.75,108.23z"/>
	<g class="st1">
		<path class="st2" d="M165.33,68.24c6.83,4.08,10.25,10.2,10.25,18.38c0,5.96-2.11,11.06-6.33,15.27s-9.31,6.32-15.27,6.32h-18
			c-2.4,0-3.6-1.2-3.6-3.6v-64.8c0-2.4,1.2-3.6,3.6-3.6h18c5.05,0,9.32,1.74,12.79,5.21c3.47,3.47,5.21,7.74,5.21,12.79
			C171.99,59.97,169.77,64.65,165.33,68.24z M139.59,72.23v28.79h14.4c4.04,0,7.44-1.39,10.23-4.17c2.78-2.78,4.17-6.19,4.17-10.23
			c0-4.04-1.39-7.44-4.17-10.23c-2.78-2.78-6.19-4.17-10.23-4.17L139.59,72.23L139.59,72.23z M139.59,43.43v21.6h14.4
			c2.98,0,5.53-1.05,7.64-3.16c2.11-2.1,3.17-4.65,3.17-7.63s-1.06-5.53-3.17-7.64c-2.11-2.1-4.66-3.16-7.64-3.16L139.59,43.43
			L139.59,43.43z"/>
		<path class="st2" d="M233.18,86.63c0,5.96-2.11,11.06-6.33,15.27s-9.31,6.32-15.27,6.32s-11.06-2.1-15.27-6.32
			s-6.33-9.31-6.33-15.27v-28.8c0-5.96,2.11-11.05,6.33-15.27s9.31-6.32,15.27-6.32c6,0,11.1,2.1,15.3,6.3s6.3,9.3,6.3,15.3V86.63z
			 M225.98,86.63v-28.8c0-4.04-1.39-7.44-4.17-10.23c-2.78-2.78-6.19-4.17-10.23-4.17s-7.44,1.39-10.22,4.17s-4.17,6.19-4.17,10.23
			v28.8c0,4.04,1.39,7.44,4.17,10.23c2.78,2.78,6.19,4.17,10.22,4.17s7.44-1.39,10.23-4.17C224.59,94.07,225.98,90.67,225.98,86.63z
			"/>
		<path class="st2" d="M290.78,86.63c0,5.96-2.11,11.06-6.33,15.27s-9.31,6.32-15.27,6.32s-11.06-2.1-15.27-6.32
			s-6.33-9.31-6.33-15.27v-28.8c0-5.96,2.11-11.05,6.33-15.27c4.22-4.22,9.31-6.32,15.27-6.32c6,0,11.1,2.1,15.3,6.3
			c4.2,4.2,6.3,9.3,6.3,15.3V86.63z M283.58,86.63v-28.8c0-4.04-1.39-7.44-4.17-10.23c-2.78-2.78-6.19-4.17-10.23-4.17
			s-7.44,1.39-10.22,4.17s-4.17,6.19-4.17,10.23v28.8c0,4.04,1.39,7.44,4.17,10.23c2.78,2.78,6.19,4.17,10.22,4.17
			s7.44-1.39,10.23-4.17C282.19,94.07,283.58,90.67,283.58,86.63z"/>
		<path class="st2" d="M321.7,70.59l-9.32,10.25v23.78c0,2.4-1.2,3.6-3.6,3.6s-3.6-1.2-3.6-3.6v-64.8c0-2.4,1.2-3.6,3.6-3.6
			s3.6,1.2,3.6,3.6V70.1l29.67-32.68c0.72-0.79,1.63-1.2,2.73-1.2c2.4,0,3.6,1.2,3.6,3.6c0,0.91-0.33,1.73-0.98,2.46l-20.56,22.64
			l21.05,37.91c0.33,0.58,0.49,1.18,0.49,1.8c0,0.91-0.37,1.74-1.12,2.48c-0.75,0.75-1.57,1.11-2.48,1.11
			c-1.45,0-2.53-0.63-3.22-1.91L321.7,70.59z"/>
		<path class="st2" d="M405.97,90.22c0,4.95-1.76,9.19-5.29,12.71c-3.53,3.53-7.76,5.29-12.71,5.29c-8.87,0-16.74-2.61-23.61-7.85
			c-1.06-0.79-1.58-1.78-1.58-2.94c0-0.98,0.36-1.83,1.06-2.54c0.71-0.71,1.56-1.06,2.53-1.06c0.58,0,1.27,0.22,2.08,0.66
			c2.11,1.27,5.42,2.95,9.93,5.02c2.94,1.02,6.15,1.52,9.6,1.52c2.98,0,5.53-1.06,7.64-3.16c2.11-2.11,3.17-4.65,3.17-7.64
			c0-4.4-2-7.62-6-9.65l-20.23-10.37c-6.51-3.34-9.77-8.67-9.77-15.98c0-4.95,1.76-9.18,5.29-12.71s7.76-5.29,12.71-5.29
			c8.51,0,15,1.31,19.47,3.92c1.42,0.84,2.13,1.93,2.13,3.28c0,0.98-0.36,1.83-1.06,2.54c-0.71,0.7-1.56,1.06-2.53,1.06
			c-0.36,0-0.87-0.13-1.53-0.38c-5.53-2.15-11.02-3.22-16.47-3.22c-2.98,0-5.53,1.06-7.64,3.16c-2.11,2.11-3.16,4.66-3.16,7.64
			c0,4.4,1.96,7.6,5.89,9.6l20.24,10.36C402.68,77.57,405.97,82.92,405.97,90.22z"/>
	</g>
	<path class="st11" d="M135.99,108.23c-2.4,0-3.6-1.2-3.6-3.6v-64.8c0-2.4,1.2-3.6,3.6-3.6s3.6,1.2,3.6,3.6v64.79
		C139.59,107.02,138.39,108.23,135.99,108.23z"/>
	<path class="st11" d="M124.11,108.23c-2.4,0-3.6-1.2-3.6-3.6v-64.8c0-2.4,1.2-3.6,3.6-3.6s3.6,1.2,3.6,3.6v64.79
		C127.71,107.02,126.51,108.23,124.11,108.23z"/>
	<path class="st11" d="M112.23,108.23c-2.4,0-3.6-1.2-3.6-3.6v-64.8c0-2.4,1.2-3.6,3.6-3.6s3.6,1.2,3.6,3.6v64.79
		C115.83,107.02,114.63,108.23,112.23,108.23z"/>
	<path class="st11" d="M91.53,107.83c-2.37-0.4-3.35-1.79-2.94-4.16l8.18-47.9c0.4-2.37,1.79-3.35,4.15-2.95
		c2.37,0.4,3.35,1.79,2.95,4.16l-8.18,47.9C95.28,107.25,93.9,108.23,91.53,107.83z"/>
</g>
<g class="st0">
	<path class="st8" d="M49.05,108.08c-2.4,0-3.6-1.2-3.6-3.6v-46.8c0-2.4,1.2-3.6,3.6-3.6c2.4,0,3.6,1.2,3.6,3.6v46.79
		C52.65,106.88,51.45,108.08,49.05,108.08z"/>
	<path class="st8" d="M61.23,108.08c-2.4,0-3.6-1.2-3.6-3.6V50.64c0-2.4,1.2-3.6,3.6-3.6c2.4,0,3.6,1.2,3.6,3.6v53.84
		C64.84,106.88,63.64,108.08,61.23,108.08z"/>
	<path class="st8" d="M73.42,108.08c-2.4,0-3.6-1.2-3.6-3.6v-35.9c0-2.4,1.2-3.6,3.6-3.6s3.6,1.2,3.6,3.6v35.9
		C77.02,106.88,75.82,108.08,73.42,108.08z"/>
	<g class="st1">
		<path class="st2" d="M91.44,39.68c0-2.4,1.2-3.6,3.6-3.6h36c2.4,0,3.6,1.2,3.6,3.6s-1.2,3.6-3.6,3.6h-14.4v61.21
			c0,2.4-1.2,3.6-3.6,3.6s-3.6-1.2-3.6-3.6V43.28h-14.4C92.63,43.28,91.44,42.08,91.44,39.68z"/>
		<path class="st2" d="M179.26,77.75l12.54,25.09c0.29,0.58,0.44,1.13,0.44,1.64c0,0.94-0.36,1.78-1.09,2.51s-1.56,1.09-2.51,1.09
			c-1.53,0-2.62-0.67-3.27-2.01l-13.42-26.84c-0.33,0.03-0.77,0.06-1.31,0.06h-14.4v25.2c0,2.4-1.2,3.6-3.6,3.6s-3.6-1.2-3.6-3.6
			V39.68c0-2.4,1.2-3.6,3.6-3.6h18c6,0,11.1,2.1,15.3,6.3s6.3,9.3,6.3,15.3C192.24,67.61,187.92,74.3,179.26,77.75z M156.24,43.28
			v28.8h14.4c4.04,0,7.44-1.39,10.23-4.18c2.78-2.78,4.17-6.19,4.17-10.23s-1.39-7.44-4.17-10.23c-2.78-2.78-6.19-4.17-10.23-4.17
			L156.24,43.28L156.24,43.28z"/>
		<path class="st2" d="M206.64,104.49V39.68c0-2.4,1.2-3.6,3.6-3.6h28.8c2.4,0,3.6,1.2,3.6,3.6s-1.2,3.6-3.6,3.6h-25.2v21.6h18
			c2.4,0,3.6,1.2,3.6,3.6s-1.2,3.6-3.6,3.6h-18v28.8h25.2c2.4,0,3.6,1.2,3.6,3.6s-1.2,3.6-3.6,3.6h-28.8
			C207.84,108.08,206.64,106.89,206.64,104.49z"/>
		<path class="st2" d="M307.45,104.49c0,2.4-1.2,3.6-3.6,3.6c-1.74,0-2.89-0.82-3.44-2.45l-5.18-15.55h-25.97l-5.18,15.55
			c-0.55,1.63-1.69,2.45-3.44,2.45c-2.4,0-3.6-1.2-3.6-3.6c0-0.44,0.06-0.82,0.16-1.15l21.44-64.37c0.66-1.92,1.86-2.89,3.6-2.89
			c1.75,0,2.93,0.93,3.55,2.78l21.49,64.47C307.39,103.67,307.45,104.05,307.45,104.49z M282.25,51.14l-10.58,31.75h21.16
			L282.25,51.14z"/>
		<path class="st2" d="M368.65,36.08c2.4,0,3.6,1.2,3.6,3.6v64.81c0,2.4-1.2,3.6-3.6,3.6s-3.6-1.2-3.6-3.6V51.52L350.38,73.5
			c-0.98,1.45-2.09,2.18-3.33,2.18c-1.27,0-2.4-0.73-3.38-2.18l-14.62-21.98v52.97c0,2.4-1.2,3.6-3.6,3.6s-3.6-1.2-3.6-3.6V39.68
			c0-2.4,1.2-3.6,3.6-3.6c1.31,0,2.37,0.6,3.17,1.8l18.44,27.65l18.55-27.87C366.29,36.61,367.3,36.08,368.65,36.08z"/>
		<path class="st2" d="M390.25,108.08c-2.4,0-3.6-1.2-3.6-3.6v-64.8c0-2.4,1.2-3.6,3.6-3.6s3.6,1.2,3.6,3.6v64.81
			C393.85,106.89,392.65,108.08,390.25,108.08z"/>
		<path class="st2" d="M444.25,90.57V39.68c0-2.4,1.2-3.6,3.6-3.6s3.6,1.2,3.6,3.6v64.81c0,2.4-1.2,3.6-3.6,3.6
			c-1.45,0-2.51-0.6-3.17-1.8l-29.23-52.74v50.95c0,2.4-1.2,3.6-3.6,3.6s-3.6-1.2-3.6-3.6V39.68c0-2.4,1.2-3.6,3.6-3.6
			c1.42,0,2.53,0.7,3.33,2.13L444.25,90.57z"/>
		<path class="st2" d="M483.85,100.88h18v-28.8h-7.2c-2.4,0-3.6-1.2-3.6-3.6s1.2-3.6,3.6-3.6h10.8c2.4,0,3.6,1.2,3.6,3.6v36
			c0,2.4-1.2,3.6-3.6,3.6h-21.6c-4.98,0-9.23-1.75-12.74-5.26s-5.27-7.76-5.27-12.74v-36c0-4.99,1.76-9.23,5.27-12.74
			s7.75-5.27,12.74-5.27h21.6c2.4,0,3.6,1.2,3.6,3.6s-1.2,3.6-3.6,3.6h-21.6c-3.02,0-5.57,1.06-7.67,3.16
			c-2.09,2.11-3.13,4.66-3.13,7.64v36c0,3.02,1.04,5.58,3.13,7.67C478.28,99.84,480.83,100.88,483.85,100.88z"/>
		<path class="st2" d="M77.04,90.08c0,4.95-1.76,9.19-5.29,12.71c-3.53,3.53-7.76,5.29-12.71,5.29c-8.87,0-16.74-2.61-23.62-7.85
			c-1.06-0.79-1.58-1.78-1.58-2.94c0-0.98,0.36-1.83,1.06-2.54c0.71-0.71,1.56-1.06,2.53-1.06c0.58,0,1.27,0.22,2.08,0.66
			c2.11,1.27,5.42,2.95,9.93,5.02c2.94,1.02,6.15,1.52,9.6,1.52c2.98,0,5.53-1.06,7.64-3.16c2.11-2.11,3.17-4.65,3.17-7.64
			c0-4.4-2-7.62-6-9.65L43.6,70.06c-6.51-3.34-9.77-8.67-9.77-15.98c0-4.95,1.76-9.18,5.29-12.71s7.76-5.29,12.71-5.29
			c8.51,0,15,1.31,19.47,3.92c1.42,0.84,2.13,1.93,2.13,3.28c0,0.98-0.36,1.83-1.06,2.54c-0.71,0.7-1.56,1.06-2.53,1.06
			c-0.36,0-0.87-0.13-1.53-0.38c-5.53-2.15-11.02-3.22-16.47-3.22c-2.98,0-5.53,1.06-7.64,3.16c-2.11,2.11-3.16,4.66-3.16,7.64
			c0,4.4,1.96,7.6,5.89,9.6l20.24,10.36C73.74,77.43,77.04,82.78,77.04,90.08z"/>
	</g>
	<path class="st8" d="M37.42,108.08c-2.4,0-3.6-1.2-3.6-3.6V55.05c0-2.4,1.2-3.6,3.6-3.6c2.4,0,3.6,1.2,3.6,3.6v49.43
		C41.02,106.88,39.82,108.08,37.42,108.08z"/>
	<path class="st8" d="M13.05,108.08c-2.4,0-3.6-1.2-3.6-3.6V50.64c0-2.4,1.2-3.6,3.6-3.6s3.6,1.2,3.6,3.6v53.84
		C16.65,106.88,15.45,108.08,13.05,108.08z"/>
	<path class="st8" d="M25.23,108.08c-2.4,0-3.6-1.2-3.6-3.6v-37.7c0-2.4,1.2-3.6,3.6-3.6s3.6,1.2,3.6,3.6v37.7
		C28.84,106.88,27.64,108.08,25.23,108.08z"/>
	<path class="st8" d="M37.42,108.08c-2.4,0-3.6-1.2-3.6-3.6v-35.9c0-2.4,1.2-3.6,3.6-3.6c2.4,0,3.6,1.2,3.6,3.6v35.9
		C41.02,106.88,39.82,108.08,37.42,108.08z"/>
	<path class="st12" d="M1.42,108.08c-2.4,0-3.6-1.2-3.6-3.6V81.56c0-2.4,1.2-3.6,3.6-3.6s3.6,1.2,3.6,3.6v22.91
		C5.02,106.88,3.82,108.08,1.42,108.08z"/>
	<path class="st8" d="M1.42,108.08c-2.4,0-3.6-1.2-3.6-3.6v-35.9c0-2.4,1.2-3.6,3.6-3.6s3.6,1.2,3.6,3.6v35.9
		C5.02,106.88,3.82,108.08,1.42,108.08z"/>
	<path class="st13" d="M-10.77,108.08c-2.4,0-3.6-1.2-3.6-3.6V55.05c0-2.4,1.2-3.6,3.6-3.6s3.6,1.2,3.6,3.6v49.43
		C-7.16,106.88-8.36,108.08-10.77,108.08z"/>
	<path class="st9" d="M77.04,90.08c0,4.95-1.76,9.19-5.29,12.71c-3.53,3.53-7.76,5.29-12.71,5.29c-8.87,0-16.74-2.61-23.62-7.85
		c-1.06-0.79-1.58-1.78-1.58-2.94c0-0.98,0.36-1.83,1.06-2.54c0.71-0.71,1.56-1.06,2.53-1.06c0.58,0,1.27,0.22,2.08,0.66
		c2.11,1.27,5.42,2.95,9.93,5.02c2.94,1.02,6.15,1.52,9.6,1.52c2.98,0,5.53-1.06,7.64-3.16c2.11-2.11,3.17-4.65,3.17-7.64
		c0-4.4-2-7.62-6-9.65L43.6,70.06c-6.51-3.34-9.77-8.67-9.77-15.98c0-4.95,1.76-9.18,5.29-12.71s7.76-5.29,12.71-5.29
		c8.51,0,15,1.31,19.47,3.92c1.42,0.84,2.13,1.93,2.13,3.28c0,0.98-0.36,1.83-1.06,2.54c-0.71,0.7-1.56,1.06-2.53,1.06
		c-0.36,0-0.87-0.13-1.53-0.38c-5.53-2.15-11.02-3.22-16.47-3.22c-2.98,0-5.53,1.06-7.64,3.16c-2.11,2.11-3.16,4.66-3.16,7.64
		c0,4.4,1.96,7.6,5.89,9.6l20.24,10.36C73.74,77.43,77.04,82.78,77.04,90.08z"/>
	<path class="st13" d="M-12.19,101.19l42.81-24.72c1.65-0.95,3.82-0.48,4.82,1.14c1.33,2.16,0.92,3.86-1.22,5.1l-42.81,24.72
		c-1.65,0.95-3.82,0.48-4.82-1.15C-14.73,104.12-14.32,102.42-12.19,101.19z"/>
	<path class="st13" d="M30.44,82.25l-42.81-24.72c-2.08-1.2-2.52-2.84-1.32-4.92c1.2-2.08,2.84-2.52,4.92-1.32l42.81,24.72
		c2.08,1.2,2.52,2.84,1.32,4.92C34.16,83.02,32.51,83.45,30.44,82.25z"/>
	<polygon class="st13" points="29.4,79.76 -8.7,57.14 -8.7,101.69 	"/>
</g>
<g>
	<polyline class="st3" points="81.87,97.24 74.95,101.58 74.95,106.54 85.48,103.94 	"/>
	<polygon class="st3" points="81.87,74.42 61.55,83.6 61.55,90.92 81.87,85.83 	"/>
	<path class="st14" d="M109.47,108c-2.4,0-3.6-1.2-3.6-3.6V76.03c0-2.4,1.2-3.6,3.6-3.6s3.6,1.2,3.6,3.6v28.36
		C113.07,106.8,111.87,108,109.47,108z"/>
	<path class="st14" d="M97.47,108c-2.4,0-3.6-1.2-3.6-3.6V57.6c0-2.4,1.2-3.6,3.6-3.6s3.6,1.2,3.6,3.6v46.8
		C101.08,106.8,99.88,108,97.47,108z"/>
	<path class="st3" d="M85.47,108c-2.4,0-3.6-1.2-3.6-3.6V61.38c0-2.4,1.2-3.6,3.6-3.6s3.6,1.2,3.6,3.6v43.02
		C89.08,106.8,87.88,108,85.47,108z"/>
	<path class="st14" d="M145.47,108c-2.4,0-3.6-1.2-3.6-3.6V76.03c0-2.4,1.2-3.6,3.6-3.6s3.6,1.2,3.6,3.6v28.36
		C149.07,106.8,147.87,108,145.47,108z"/>
	<path class="st14" d="M121.47,108c-2.4,0-3.6-1.2-3.6-3.6V66.92c0-2.4,1.2-3.6,3.6-3.6s3.6,1.2,3.6,3.6v37.47
		C125.07,106.8,123.87,108,121.47,108z"/>
	<path class="st14" d="M133.47,108c-2.4,0-3.6-1.2-3.6-3.6V57.6c0-2.4,1.2-3.6,3.6-3.6s3.6,1.2,3.6,3.6v46.8
		C137.07,106.8,135.87,108,133.47,108z"/>
	<g>
		<path class="st15" d="M105.87,39.6c0-2.4,1.2-3.6,3.6-3.6h36c2.4,0,3.6,1.2,3.6,3.6c0,2.4-1.2,3.6-3.6,3.6h-14.4v61.2
			c0,2.4-1.2,3.6-3.6,3.6s-3.6-1.2-3.6-3.6V43.2h-14.4C107.07,43.2,105.87,41.99,105.87,39.6z"/>
		<path class="st15" d="M193.68,77.67l12.54,25.09c0.29,0.58,0.44,1.13,0.44,1.64c0,0.94-0.36,1.78-1.09,2.51s-1.56,1.09-2.51,1.09
			c-1.53,0-2.62-0.67-3.27-2.01l-13.42-26.84c-0.33,0.03-0.77,0.06-1.31,0.06h-14.4v25.2c0,2.4-1.2,3.6-3.6,3.6s-3.6-1.2-3.6-3.6
			V39.6c0-2.4,1.2-3.6,3.6-3.6h18c6,0,11.1,2.1,15.3,6.3s6.3,9.3,6.3,15.3C206.66,67.52,202.34,74.21,193.68,77.67z M170.67,43.2V72
			h14.4c4.04,0,7.44-1.39,10.23-4.18c2.78-2.78,4.17-6.19,4.17-10.23s-1.39-7.44-4.17-10.23c-2.78-2.78-6.19-4.17-10.23-4.17
			L170.67,43.2L170.67,43.2z"/>
		<path class="st15" d="M271.46,104.4c0,2.4-1.2,3.6-3.6,3.6c-1.74,0-2.89-0.82-3.44-2.45L259.24,90h-25.96l-5.18,15.55
			c-0.55,1.63-1.69,2.45-3.44,2.45c-2.4,0-3.6-1.2-3.6-3.6c0-0.44,0.06-0.82,0.16-1.15l21.44-64.36c0.66-1.92,1.85-2.89,3.6-2.89
			s2.93,0.93,3.55,2.78l21.49,64.47C271.41,103.58,271.46,103.95,271.46,104.4z M246.26,51.05l-10.58,31.74h21.16L246.26,51.05z"/>
		<path class="st15" d="M311.06,107.99c-1.74,0-2.93-0.93-3.55-2.78l-21.49-64.47c-0.11-0.33-0.16-0.7-0.16-1.15
			c0-2.4,1.2-3.6,3.6-3.6c1.75,0,2.89,0.82,3.44,2.46l18.16,54.48l18.16-54.48c0.54-1.64,1.69-2.46,3.44-2.46c2.4,0,3.6,1.2,3.6,3.6
			c0,0.44-0.05,0.82-0.16,1.15l-21.49,64.47C313.98,107.07,312.8,107.99,311.06,107.99z"/>
		<path class="st15" d="M350.65,104.4V39.6c0-2.4,1.2-3.6,3.6-3.6h28.8c2.4,0,3.6,1.2,3.6,3.6c0,2.4-1.2,3.6-3.6,3.6h-25.2v21.6h18
			c2.4,0,3.6,1.2,3.6,3.6s-1.2,3.6-3.6,3.6h-18v28.79h25.2c2.4,0,3.6,1.2,3.6,3.6s-1.2,3.6-3.6,3.6h-28.8
			C351.85,107.99,350.65,106.8,350.65,104.4z"/>
		<path class="st15" d="M401.05,39.6c0-2.4,1.2-3.6,3.6-3.6s3.6,1.2,3.6,3.6v61.2h25.2c2.4,0,3.6,1.2,3.6,3.6s-1.2,3.6-3.6,3.6
			h-28.8c-2.4,0-3.6-1.2-3.6-3.6L401.05,39.6L401.05,39.6z"/>
	</g>
	<polygon class="st3" points="89.08,74.42 109.4,83.6 109.4,90.92 89.08,85.83 	"/>
	<polyline class="st3" points="89.08,97.24 96,101.58 96,106.54 85.48,103.94 	"/>
</g>
</svg>
