<?xml version="1.0" encoding="utf-8"?>
<!-- Generator: Adobe Illustrator 27.2.0, SVG Export Plug-In . SVG Version: 6.00 Build 0)  -->
<svg version="1.1" id="Layer_1" xmlns="http://www.w3.org/2000/svg" xmlns:xlink="http://www.w3.org/1999/xlink" x="0px" y="0px"
	 viewBox="0 0 648 144" style="enable-background:new 0 0 648 144;" xml:space="preserve">
<style type="text/css">
	.st0{display:none;}
	.st1{display:inline;}
	.st2{fill:#221F1F;}
	.st3{fill:#AB63FA;}
	.st4{fill:#00CC96;}
	.st5{fill:#636EFA;}
	.st6{fill:#EF553B;}
	.st7{display:none;fill:#41B88E;}
	.st8{display:inline;fill:#FFFFFF;}
	.st9{display:inline;fill:#221F1F;}
	.st10{display:inline;fill:#00CC96;}
	.st11{fill:#C7C8CA;}
	.st12{display:inline;fill:#C6C7C8;}
	.st13{display:inline;fill:#EF553B;}
</style>
<g class="st0">
	<g class="st1">
		<path class="st2" d="M-149.08,90.49V39.6c0-2.4,1.2-3.6,3.6-3.6c2.4,0,3.6,1.2,3.6,3.6v64.79c0,2.4-1.2,3.6-3.6,3.6
			c-1.45,0-2.51-0.61-3.17-1.8l-29.23-52.73v50.94c0,2.4-1.2,3.6-3.6,3.6c-2.4,0-3.6-1.2-3.6-3.6V39.6c0-2.4,1.2-3.6,3.6-3.6
			c1.42,0,2.53,0.71,3.33,2.13L-149.08,90.49z"/>
		<path class="st2" d="M-84.29,86.4c0,5.97-2.11,11.06-6.33,15.27c-4.22,4.22-9.31,6.33-15.27,6.33s-11.06-2.11-15.27-6.33
			s-6.33-9.3-6.33-15.27V57.6c0-5.96,2.11-11.06,6.33-15.27s9.31-6.33,15.27-6.33c6,0,11.1,2.1,15.3,6.31
			c4.2,4.19,6.3,9.29,6.3,15.3C-84.29,57.61-84.29,86.4-84.29,86.4z M-91.49,86.4V57.6c0-4.04-1.39-7.44-4.17-10.23
			c-2.78-2.78-6.19-4.18-10.23-4.18s-7.44,1.39-10.22,4.18c-2.78,2.78-4.17,6.19-4.17,10.23v28.8c0,4.04,1.39,7.44,4.17,10.23
			c2.78,2.78,6.19,4.18,10.22,4.18c4.04,0,7.44-1.39,10.23-4.18C-92.88,93.84-91.49,90.43-91.49,86.4z"/>
		<path class="st2" d="M-44.69,108c-1.74,0-2.93-0.93-3.55-2.78l-21.49-64.47c-0.11-0.33-0.16-0.71-0.16-1.15c0-2.4,1.2-3.6,3.6-3.6
			c1.75,0,2.89,0.82,3.44,2.46l18.16,54.49l18.16-54.49c0.54-1.64,1.69-2.46,3.44-2.46c2.4,0,3.6,1.2,3.6,3.6
			c0,0.43-0.05,0.82-0.16,1.15l-21.49,64.47C-41.76,107.07-42.94,108-44.69,108z"/>
		<path class="st2" d="M-5.1,104.4V39.6c0-2.4,1.2-3.6,3.6-3.6h28.8c2.4,0,3.6,1.2,3.6,3.6c0,2.4-1.2,3.6-3.6,3.6H2.1v21.6h18
			c2.4,0,3.6,1.2,3.6,3.6c0,2.41-1.2,3.6-3.6,3.6h-18v28.8h25.2c2.4,0,3.6,1.2,3.6,3.6s-1.2,3.6-3.6,3.6H-1.5
			C-3.9,108-5.1,106.8-5.1,104.4z"/>
		<path class="st2" d="M45.3,39.6c0-2.4,1.2-3.6,3.6-3.6s3.6,1.2,3.6,3.6v61.2h25.2c2.4,0,3.6,1.2,3.6,3.6s-1.2,3.6-3.6,3.6H48.9
			c-2.4,0-3.6-1.2-3.6-3.6L45.3,39.6L45.3,39.6z"/>
		<path class="st2" d="M95.7,39.6c0-2.4,1.2-3.6,3.6-3.6h36c2.4,0,3.6,1.2,3.6,3.6c0,2.4-1.2,3.6-3.6,3.6h-14.4v61.2
			c0,2.4-1.2,3.6-3.6,3.6s-3.6-1.2-3.6-3.6V43.2H99.3C96.9,43.2,95.7,42,95.7,39.6z"/>
		<path class="st2" d="M182.09,72v32.4c0,2.4-1.2,3.6-3.6,3.6s-3.6-1.2-3.6-3.6V72l-20.94-30.32c-0.43-0.61-0.66-1.31-0.66-2.07
			c0-2.4,1.2-3.6,3.6-3.6c1.31,0,2.31,0.52,3,1.53l18.6,27.05l18.6-27.05c0.69-1.02,1.69-1.53,3-1.53c2.4,0,3.6,1.2,3.6,3.6
			c0,0.76-0.22,1.46-0.66,2.07L182.09,72z"/>
		<path class="st2" d="M246.34,108c-2.4,0-3.6-1.2-3.6-3.6V39.6c0-2.4,1.2-3.6,3.6-3.6s3.6,1.2,3.6,3.6v64.79
			C249.94,106.8,248.74,108,246.34,108z"/>
		<path class="st2" d="M300.34,90.49V39.6c0-2.4,1.2-3.6,3.6-3.6s3.6,1.2,3.6,3.6v64.79c0,2.4-1.2,3.6-3.6,3.6
			c-1.45,0-2.51-0.61-3.17-1.8l-29.23-52.74v50.94c0,2.4-1.2,3.6-3.6,3.6s-3.6-1.2-3.6-3.6V39.6c0-2.4,1.2-3.6,3.6-3.6
			c1.42,0,2.53,0.71,3.33,2.13L300.34,90.49z"/>
		<path class="st2" d="M365.13,90c0,4.95-1.76,9.18-5.29,12.71c-3.53,3.52-7.76,5.29-12.71,5.29c-8.87,0-16.74-2.62-23.61-7.85
			c-1.06-0.8-1.58-1.79-1.58-2.95c0-0.98,0.36-1.83,1.06-2.54c0.71-0.7,1.56-1.06,2.53-1.06c0.58,0,1.27,0.22,2.08,0.66
			c2.11,1.28,5.42,2.95,9.93,5.02c2.94,1.02,6.15,1.53,9.6,1.53c2.98,0,5.53-1.06,7.64-3.17c2.11-2.1,3.17-4.65,3.17-7.63
			c0-4.4-2-7.62-6-9.66L331.7,69.99c-6.51-3.35-9.77-8.67-9.77-15.99c0-4.95,1.76-9.18,5.29-12.71c3.53-3.52,7.76-5.29,12.71-5.29
			c8.51,0,15,1.31,19.47,3.93c1.42,0.84,2.13,1.92,2.13,3.27c0,0.98-0.36,1.83-1.06,2.54c-0.71,0.71-1.56,1.06-2.53,1.06
			c-0.36,0-0.87-0.12-1.53-0.38c-5.53-2.15-11.02-3.22-16.47-3.22c-2.98,0-5.53,1.06-7.64,3.17c-2.11,2.1-3.16,4.65-3.16,7.63
			c0,4.4,1.96,7.6,5.89,9.6l20.24,10.37C361.84,77.35,365.13,82.69,365.13,90z"/>
		<path class="st2" d="M383.13,108c-2.4,0-3.6-1.2-3.6-3.6V39.6c0-2.4,1.2-3.6,3.6-3.6s3.6,1.2,3.6,3.6v64.79
			C386.73,106.8,385.53,108,383.13,108z"/>
		<path class="st2" d="M419.13,100.8h18V72h-7.2c-2.4,0-3.6-1.2-3.6-3.6s1.2-3.6,3.6-3.6h10.8c2.4,0,3.6,1.2,3.6,3.6v36
			c0,2.4-1.2,3.6-3.6,3.6h-21.6c-4.98,0-9.23-1.75-12.73-5.27c-3.51-3.51-5.27-7.76-5.27-12.73V54c0-4.98,1.76-9.22,5.27-12.73
			S414.15,36,419.13,36h21.6c2.4,0,3.6,1.2,3.6,3.6c0,2.4-1.2,3.6-3.6,3.6h-21.6c-3.02,0-5.57,1.06-7.67,3.17
			c-2.09,2.1-3.13,4.65-3.13,7.63v36c0,3.01,1.04,5.57,3.13,7.67C413.56,99.75,416.11,100.8,419.13,100.8z"/>
		<path class="st2" d="M458.72,104.4V39.6c0-2.4,1.2-3.6,3.6-3.6s3.6,1.2,3.6,3.6v25.2h28.8V39.6c0-2.4,1.2-3.6,3.6-3.6
			s3.6,1.2,3.6,3.6v64.79c0,2.4-1.2,3.6-3.6,3.6s-3.6-1.2-3.6-3.6V72h-28.8v32.4c0,2.4-1.2,3.6-3.6,3.6S458.72,106.8,458.72,104.4z"
			/>
		<path class="st2" d="M516.32,39.6c0-2.4,1.2-3.6,3.6-3.6h36c2.4,0,3.6,1.2,3.6,3.6c0,2.4-1.2,3.6-3.6,3.6h-14.4v61.2
			c0,2.4-1.2,3.6-3.6,3.6c-2.4,0-3.6-1.2-3.6-3.6V43.2h-14.4C517.52,43.2,516.32,42,516.32,39.6z"/>
		<path class="st2" d="M617.11,90c0,4.95-1.76,9.18-5.29,12.71c-3.53,3.52-7.76,5.29-12.71,5.29c-8.87,0-16.74-2.62-23.61-7.85
			c-1.06-0.8-1.58-1.79-1.58-2.95c0-0.98,0.36-1.83,1.06-2.54c0.71-0.7,1.56-1.06,2.53-1.06c0.58,0,1.27,0.22,2.08,0.66
			c2.11,1.28,5.42,2.95,9.93,5.02c2.94,1.02,6.15,1.53,9.6,1.53c2.98,0,5.53-1.06,7.64-3.17c2.11-2.1,3.17-4.65,3.17-7.63
			c0-4.4-2-7.62-6-9.66L583.7,69.99c-6.51-3.35-9.77-8.67-9.77-15.99c0-4.95,1.76-9.18,5.29-12.71c3.53-3.52,7.76-5.29,12.71-5.29
			c8.51,0,15,1.31,19.47,3.93c1.42,0.84,2.13,1.92,2.13,3.27c0,0.98-0.36,1.83-1.06,2.54c-0.71,0.71-1.56,1.06-2.53,1.06
			c-0.36,0-0.87-0.12-1.53-0.38c-5.53-2.15-11.02-3.22-16.47-3.22c-2.98,0-5.53,1.06-7.64,3.17c-2.11,2.1-3.16,4.65-3.16,7.63
			c0,4.4,1.96,7.6,5.89,9.6l20.24,10.37C613.82,77.35,617.11,82.69,617.11,90z"/>
	</g>
	<g class="st1">
		<path class="st3" d="M-145.52,108c-2.4,0-3.6-1.2-3.6-3.6V39.6c0-2.4,1.2-3.6,3.6-3.6c2.4,0,3.6,1.2,3.6,3.6v64.79
			C-141.91,106.8-143.11,108-145.52,108z"/>
		<path class="st4" d="M-181.51,108c-2.4,0-3.6-1.2-3.6-3.6V39.6c0-2.4,1.2-3.6,3.6-3.6c2.4,0,3.6,1.2,3.6,3.6v64.79
			C-177.91,106.8-179.11,108-181.51,108z"/>
		<path class="st5" d="M-169.89,108c-2.4,0-3.6-1.2-3.6-3.6V61.29c0-2.4,1.2-3.6,3.6-3.6c2.4,0,3.6,1.2,3.6,3.6v43.11
			C-166.28,106.8-167.48,108-169.89,108z"/>
		<path class="st6" d="M-157.75,108c-2.4,0-3.6-1.2-3.6-3.6V83.05c0-2.4,1.2-3.6,3.6-3.6s3.6,1.2,3.6,3.6v21.34
			C-154.15,106.8-155.35,108-157.75,108z"/>
		<path class="st7" d="M303.93,108c-2.4,0-3.6-1.2-3.6-3.6V39.6c0-2.4,1.2-3.6,3.6-3.6s3.6,1.2,3.6,3.6v64.79
			C307.53,106.8,306.33,108,303.93,108z"/>
		<path class="st7" d="M267.93,108c-2.4,0-3.6-1.2-3.6-3.6V39.6c0-2.4,1.2-3.6,3.6-3.6s3.6,1.2,3.6,3.6v64.79
			C271.54,106.8,270.34,108,267.93,108z"/>
		<path class="st7" d="M279.77,108c-2.4,0-3.6-1.2-3.6-3.6V61.29c0-2.4,1.2-3.6,3.6-3.6s3.6,1.2,3.6,3.6v43.11
			C283.37,106.8,282.17,108,279.77,108z"/>
		<path class="st7" d="M291.9,108c-2.4,0-3.6-1.2-3.6-3.6V83.05c0-2.4,1.2-3.6,3.6-3.6s3.6,1.2,3.6,3.6v21.34
			C295.51,106.8,294.31,108,291.9,108z"/>
	</g>
</g>
<g class="st0">
	<path class="st8" d="M118.77,107.81c-2.39,0-3.59-1.2-3.59-3.59V71.9c0-2.39,1.2-3.59,3.59-3.59c2.4,0,3.59,1.2,3.59,3.59v32.31
		C122.37,106.61,121.17,107.81,118.77,107.81z"/>
	<path class="st8" d="M140.31,107.81c-2.39,0-3.59-1.2-3.59-3.59V43.65c0-2.39,1.2-3.59,3.59-3.59c2.4,0,3.59,1.2,3.59,3.59v60.56
		C143.91,106.61,142.71,107.81,140.31,107.81z"/>
	<path class="st8" d="M129.54,107.81c-2.39,0-3.59-1.2-3.59-3.59V56.45c0-2.39,1.2-3.59,3.59-3.59c2.4,0,3.59,1.2,3.59,3.59v47.76
		C133.14,106.61,131.94,107.81,129.54,107.81z"/>
	<g class="st1">
		<path class="st2" d="M212.13,39.59v46.68c0,5.95-2.1,11.03-6.31,15.23s-9.29,6.31-15.23,6.31s-11.03-2.1-15.23-6.31
			s-6.31-9.29-6.31-15.23V39.59c0-2.39,1.2-3.59,3.59-3.59c2.4,0,3.59,1.19,3.59,3.59v46.68c0,4.03,1.38,7.42,4.16,10.2
			c2.77,2.77,6.17,4.16,10.2,4.16s7.42-1.39,10.2-4.16c2.77-2.78,4.16-6.17,4.16-10.2V39.59c0-2.39,1.2-3.59,3.59-3.59
			S212.13,37.2,212.13,39.59z"/>
		<path class="st2" d="M269.57,89.85c0,4.93-1.76,9.16-5.28,12.68c-3.52,3.52-7.74,5.28-12.68,5.28c-8.85,0-16.7-2.61-23.55-7.83
			c-1.05-0.79-1.58-1.77-1.58-2.93c0-0.98,0.36-1.83,1.06-2.53c0.71-0.71,1.55-1.06,2.53-1.06c0.58,0,1.27,0.22,2.07,0.65
			c2.1,1.27,5.4,2.94,9.9,5.01c2.94,1.01,6.13,1.52,9.57,1.52c2.97,0,5.51-1.05,7.62-3.15c2.1-2.11,3.16-4.64,3.16-7.62
			c0-4.39-2-7.6-5.99-9.62l-20.18-10.34c-6.49-3.33-9.74-8.65-9.74-15.93c0-4.93,1.76-9.16,5.28-12.68s7.74-5.28,12.68-5.28
			c8.49,0,14.96,1.31,19.42,3.91c1.42,0.84,2.12,1.93,2.12,3.27c0,0.98-0.36,1.82-1.06,2.53c-0.71,0.7-1.55,1.06-2.53,1.06
			c-0.36,0-0.87-0.13-1.52-0.38c-5.51-2.14-10.99-3.21-16.43-3.21c-2.97,0-5.51,1.05-7.62,3.15c-2.1,2.11-3.15,4.65-3.15,7.62
			c0,4.39,1.96,7.58,5.87,9.57l20.18,10.33C266.29,77.23,269.57,82.57,269.57,89.85z"/>
		<path class="st2" d="M287.52,107.8c-2.39,0-3.59-1.19-3.59-3.59V39.59c0-2.39,1.2-3.59,3.59-3.59c2.4,0,3.59,1.19,3.59,3.59v64.63
			C291.12,106.61,289.92,107.8,287.52,107.8z"/>
		<path class="st2" d="M337.78,36c2.39,0,3.59,1.19,3.59,3.59s-1.2,3.59-3.59,3.59h-14.36c-3.01,0-5.56,1.05-7.64,3.15
			c-2.08,2.11-3.12,4.65-3.12,7.62v35.89c0,2.98,1.05,5.51,3.15,7.62c2.1,2.1,4.64,3.15,7.62,3.15h14.36c2.39,0,3.59,1.2,3.59,3.59
			s-1.2,3.59-3.59,3.59h-14.36c-4.97,0-9.2-1.75-12.7-5.24c-3.5-3.5-5.25-7.73-5.25-12.71V53.96c0-4.97,1.75-9.2,5.25-12.7
			s7.73-5.25,12.7-5.25L337.78,36L337.78,36z"/>
		<path class="st2" d="M151.1,36c2.39,0,3.59,1.19,3.59,3.59v64.63c0,2.39-1.2,3.59-3.59,3.59s-3.59-1.19-3.59-3.59V51.4
			l-14.63,21.92c-0.98,1.45-2.09,2.17-3.32,2.17c-1.27,0-2.39-0.73-3.37-2.17L111.61,51.4v52.82c0,2.39-1.2,3.59-3.59,3.59
			s-3.59-1.19-3.59-3.59V39.59c0-2.39,1.2-3.59,3.59-3.59c1.31,0,2.36,0.6,3.16,1.8l18.38,27.57l18.49-27.79
			C148.74,36.53,149.76,36,151.1,36z"/>
	</g>
	<path class="st9" d="M151.08,107.81c-2.39,0-3.59-1.2-3.59-3.59V39.59c0-2.39,1.2-3.59,3.59-3.59c2.4,0,3.59,1.2,3.59,3.59v64.62
		C154.68,106.61,153.48,107.81,151.08,107.81z"/>
	<path class="st10" d="M108.01,107.81c-2.39,0-3.59-1.2-3.59-3.59V39.59c0-2.39,1.2-3.59,3.59-3.59c2.4,0,3.59,1.2,3.59,3.59v64.62
		C111.6,106.61,110.4,107.81,108.01,107.81z"/>
	
		<ellipse transform="matrix(0.9329 -0.3601 0.3601 0.9329 -32.3114 42.1656)" class="st10" cx="97.01" cy="107.8" rx="15.03" ry="11.14"/>
</g>
<g>
	<path class="st11" d="M145.48,108.23c-2.4,0-3.6-1.2-3.6-3.6V70.38c0-2.4,1.2-3.6,3.6-3.6s3.6,1.2,3.6,3.6v34.24
		C149.08,107.02,147.88,108.23,145.48,108.23z"/>
	<path class="st11" d="M121.11,108.23c-2.4,0-3.6-1.2-3.6-3.6V60.59c0-2.4,1.2-3.6,3.6-3.6s3.6,1.2,3.6,3.6v44.04
		C124.71,107.02,123.51,108.23,121.11,108.23z"/>
	<path class="st11" d="M133.24,108.23c-2.4,0-3.6-1.2-3.6-3.6v-48.6c0-2.4,1.2-3.6,3.6-3.6c2.4,0,3.6,1.2,3.6,3.6v48.6
		C136.84,107.02,135.64,108.23,133.24,108.23z"/>
	<g>
		<path class="st2" d="M138.82,68.24c6.83,4.08,10.25,10.2,10.25,18.38c0,5.96-2.11,11.06-6.33,15.27s-9.31,6.32-15.27,6.32h-18
			c-2.4,0-3.6-1.2-3.6-3.6v-64.8c0-2.4,1.2-3.6,3.6-3.6h18c5.05,0,9.32,1.74,12.79,5.21c3.47,3.47,5.21,7.74,5.21,12.79
			C145.48,59.97,143.26,64.65,138.82,68.24z M113.08,72.23v28.79h14.4c4.04,0,7.44-1.39,10.23-4.17c2.78-2.78,4.17-6.19,4.17-10.23
			c0-4.04-1.39-7.44-4.17-10.23c-2.78-2.78-6.19-4.17-10.23-4.17L113.08,72.23L113.08,72.23z M113.08,43.43v21.6h14.4
			c2.98,0,5.53-1.05,7.64-3.16c2.11-2.1,3.17-4.65,3.17-7.63s-1.06-5.53-3.17-7.64c-2.11-2.1-4.66-3.16-7.64-3.16L113.08,43.43
			L113.08,43.43z"/>
		<path class="st2" d="M206.67,86.63c0,5.96-2.11,11.06-6.33,15.27s-9.31,6.32-15.27,6.32s-11.06-2.1-15.27-6.32
			s-6.33-9.31-6.33-15.27v-28.8c0-5.96,2.11-11.05,6.33-15.27s9.31-6.32,15.27-6.32c6,0,11.1,2.1,15.3,6.3s6.3,9.3,6.3,15.3V86.63z
			 M199.47,86.63v-28.8c0-4.04-1.39-7.44-4.17-10.23c-2.78-2.78-6.19-4.17-10.23-4.17s-7.44,1.39-10.22,4.17s-4.17,6.19-4.17,10.23
			v28.8c0,4.04,1.39,7.44,4.17,10.23c2.78,2.78,6.19,4.17,10.22,4.17s7.44-1.39,10.23-4.17C198.08,94.07,199.47,90.67,199.47,86.63z
			"/>
		<path class="st2" d="M264.27,86.63c0,5.96-2.11,11.06-6.33,15.27s-9.31,6.32-15.27,6.32s-11.06-2.1-15.27-6.32
			s-6.33-9.31-6.33-15.27v-28.8c0-5.96,2.11-11.05,6.33-15.27s9.31-6.32,15.27-6.32c6,0,11.1,2.1,15.3,6.3c4.2,4.2,6.3,9.3,6.3,15.3
			V86.63z M257.07,86.63v-28.8c0-4.04-1.39-7.44-4.17-10.23c-2.78-2.78-6.19-4.17-10.23-4.17s-7.44,1.39-10.22,4.17
			s-4.17,6.19-4.17,10.23v28.8c0,4.04,1.39,7.44,4.17,10.23c2.78,2.78,6.19,4.17,10.22,4.17s7.44-1.39,10.23-4.17
			C255.68,94.07,257.07,90.67,257.07,86.63z"/>
		<path class="st2" d="M295.19,70.59l-9.32,10.25v23.78c0,2.4-1.2,3.6-3.6,3.6s-3.6-1.2-3.6-3.6v-64.8c0-2.4,1.2-3.6,3.6-3.6
			s3.6,1.2,3.6,3.6V70.1l29.67-32.68c0.72-0.79,1.63-1.2,2.73-1.2c2.4,0,3.6,1.2,3.6,3.6c0,0.91-0.33,1.73-0.98,2.46l-20.56,22.64
			l21.05,37.91c0.33,0.58,0.49,1.18,0.49,1.8c0,0.91-0.37,1.74-1.12,2.48c-0.75,0.75-1.57,1.11-2.48,1.11
			c-1.45,0-2.53-0.63-3.22-1.91L295.19,70.59z"/>
		<path class="st2" d="M379.46,90.22c0,4.95-1.76,9.19-5.29,12.71c-3.53,3.53-7.76,5.29-12.71,5.29c-8.87,0-16.74-2.61-23.61-7.85
			c-1.06-0.79-1.58-1.78-1.58-2.94c0-0.98,0.36-1.83,1.06-2.54c0.71-0.71,1.56-1.06,2.53-1.06c0.58,0,1.27,0.22,2.08,0.66
			c2.11,1.27,5.42,2.95,9.93,5.02c2.94,1.02,6.15,1.52,9.6,1.52c2.98,0,5.53-1.06,7.64-3.16c2.11-2.11,3.17-4.65,3.17-7.64
			c0-4.4-2-7.62-6-9.65l-20.23-10.37c-6.51-3.34-9.77-8.67-9.77-15.98c0-4.95,1.76-9.18,5.29-12.71s7.76-5.29,12.71-5.29
			c8.51,0,15,1.31,19.47,3.92c1.42,0.84,2.13,1.93,2.13,3.28c0,0.98-0.36,1.83-1.06,2.54c-0.71,0.7-1.56,1.06-2.53,1.06
			c-0.36,0-0.87-0.13-1.53-0.38c-5.53-2.15-11.02-3.22-16.47-3.22c-2.98,0-5.53,1.06-7.64,3.16c-2.11,2.11-3.16,4.66-3.16,7.64
			c0,4.4,1.96,7.6,5.89,9.6l20.24,10.36C376.17,77.57,379.46,82.92,379.46,90.22z"/>
	</g>
	<path class="st5" d="M109.48,108.23c-2.4,0-3.6-1.2-3.6-3.6v-64.8c0-2.4,1.2-3.6,3.6-3.6s3.6,1.2,3.6,3.6v64.79
		C113.08,107.02,111.88,108.23,109.48,108.23z"/>
	<path class="st5" d="M97.6,108.23c-2.4,0-3.6-1.2-3.6-3.6v-64.8c0-2.4,1.2-3.6,3.6-3.6s3.6,1.2,3.6,3.6v64.79
		C101.2,107.02,100,108.23,97.6,108.23z"/>
	<path class="st5" d="M85.72,108.23c-2.4,0-3.6-1.2-3.6-3.6v-64.8c0-2.4,1.2-3.6,3.6-3.6s3.6,1.2,3.6,3.6v64.79
		C89.32,107.02,88.12,108.23,85.72,108.23z"/>
	<path class="st5" d="M65.02,107.83c-2.37-0.4-3.35-1.79-2.94-4.16l8.18-47.9c0.4-2.37,1.79-3.35,4.15-2.95
		c2.37,0.4,3.35,1.79,2.95,4.16l-8.18,47.9C68.77,107.25,67.39,108.23,65.02,107.83z"/>
</g>
<g class="st0">
	<path class="st8" d="M13.05,108.08c-2.4,0-3.6-1.2-3.6-3.6v-46.8c0-2.4,1.2-3.6,3.6-3.6s3.6,1.2,3.6,3.6v46.79
		C16.65,106.88,15.45,108.08,13.05,108.08z"/>
	<path class="st8" d="M25.23,108.08c-2.4,0-3.6-1.2-3.6-3.6V50.64c0-2.4,1.2-3.6,3.6-3.6s3.6,1.2,3.6,3.6v53.84
		C28.84,106.88,27.64,108.08,25.23,108.08z"/>
	<path class="st8" d="M37.42,108.08c-2.4,0-3.6-1.2-3.6-3.6v-35.9c0-2.4,1.2-3.6,3.6-3.6c2.4,0,3.6,1.2,3.6,3.6v35.9
		C41.02,106.88,39.82,108.08,37.42,108.08z"/>
	<g class="st1">
		<path class="st2" d="M55.44,39.68c0-2.4,1.2-3.6,3.6-3.6h36c2.4,0,3.6,1.2,3.6,3.6s-1.2,3.6-3.6,3.6h-14.4v61.21
			c0,2.4-1.2,3.6-3.6,3.6s-3.6-1.2-3.6-3.6V43.28h-14.4C56.63,43.28,55.44,42.08,55.44,39.68z"/>
		<path class="st2" d="M143.26,77.75l12.54,25.09c0.29,0.58,0.44,1.13,0.44,1.64c0,0.94-0.36,1.78-1.09,2.51s-1.56,1.09-2.51,1.09
			c-1.53,0-2.62-0.67-3.27-2.01l-13.42-26.84c-0.33,0.03-0.77,0.06-1.31,0.06h-14.4v25.2c0,2.4-1.2,3.6-3.6,3.6s-3.6-1.2-3.6-3.6
			V39.68c0-2.4,1.2-3.6,3.6-3.6h18c6,0,11.1,2.1,15.3,6.3s6.3,9.3,6.3,15.3C156.24,67.61,151.92,74.3,143.26,77.75z M120.24,43.28
			v28.8h14.4c4.04,0,7.44-1.39,10.23-4.18c2.78-2.78,4.17-6.19,4.17-10.23s-1.39-7.44-4.17-10.23c-2.78-2.78-6.19-4.17-10.23-4.17
			L120.24,43.28L120.24,43.28z"/>
		<path class="st2" d="M170.64,104.49V39.68c0-2.4,1.2-3.6,3.6-3.6h28.8c2.4,0,3.6,1.2,3.6,3.6s-1.2,3.6-3.6,3.6h-25.2v21.6h18
			c2.4,0,3.6,1.2,3.6,3.6s-1.2,3.6-3.6,3.6h-18v28.8h25.2c2.4,0,3.6,1.2,3.6,3.6s-1.2,3.6-3.6,3.6h-28.8
			C171.84,108.08,170.64,106.89,170.64,104.49z"/>
		<path class="st2" d="M271.45,104.49c0,2.4-1.2,3.6-3.6,3.6c-1.74,0-2.89-0.82-3.44-2.45l-5.18-15.55h-25.97l-5.18,15.55
			c-0.55,1.63-1.69,2.45-3.44,2.45c-2.4,0-3.6-1.2-3.6-3.6c0-0.44,0.06-0.82,0.16-1.15l21.44-64.37c0.66-1.92,1.86-2.89,3.6-2.89
			c1.75,0,2.93,0.93,3.55,2.78l21.49,64.47C271.39,103.67,271.45,104.05,271.45,104.49z M246.25,51.14l-10.58,31.75h21.16
			L246.25,51.14z"/>
		<path class="st2" d="M332.65,36.08c2.4,0,3.6,1.2,3.6,3.6v64.81c0,2.4-1.2,3.6-3.6,3.6s-3.6-1.2-3.6-3.6V51.52L314.38,73.5
			c-0.98,1.45-2.09,2.18-3.33,2.18c-1.27,0-2.4-0.73-3.38-2.18l-14.62-21.98v52.97c0,2.4-1.2,3.6-3.6,3.6s-3.6-1.2-3.6-3.6V39.68
			c0-2.4,1.2-3.6,3.6-3.6c1.31,0,2.37,0.6,3.17,1.8l18.44,27.65l18.55-27.87C330.29,36.61,331.3,36.08,332.65,36.08z"/>
		<path class="st2" d="M354.25,108.08c-2.4,0-3.6-1.2-3.6-3.6v-64.8c0-2.4,1.2-3.6,3.6-3.6s3.6,1.2,3.6,3.6v64.81
			C357.85,106.89,356.65,108.08,354.25,108.08z"/>
		<path class="st2" d="M408.25,90.57V39.68c0-2.4,1.2-3.6,3.6-3.6s3.6,1.2,3.6,3.6v64.81c0,2.4-1.2,3.6-3.6,3.6
			c-1.45,0-2.51-0.6-3.17-1.8l-29.23-52.74v50.95c0,2.4-1.2,3.6-3.6,3.6s-3.6-1.2-3.6-3.6V39.68c0-2.4,1.2-3.6,3.6-3.6
			c1.42,0,2.53,0.7,3.33,2.13L408.25,90.57z"/>
		<path class="st2" d="M447.85,100.88h18v-28.8h-7.2c-2.4,0-3.6-1.2-3.6-3.6s1.2-3.6,3.6-3.6h10.8c2.4,0,3.6,1.2,3.6,3.6v36
			c0,2.4-1.2,3.6-3.6,3.6h-21.6c-4.98,0-9.23-1.75-12.74-5.26s-5.27-7.76-5.27-12.74v-36c0-4.99,1.76-9.23,5.27-12.74
			s7.75-5.27,12.74-5.27h21.6c2.4,0,3.6,1.2,3.6,3.6s-1.2,3.6-3.6,3.6h-21.6c-3.02,0-5.57,1.06-7.67,3.16
			c-2.09,2.11-3.13,4.66-3.13,7.64v36c0,3.02,1.04,5.58,3.13,7.67C442.28,99.84,444.83,100.88,447.85,100.88z"/>
		<path class="st2" d="M41.04,90.08c0,4.95-1.76,9.19-5.29,12.71c-3.53,3.53-7.76,5.29-12.71,5.29c-8.87,0-16.74-2.61-23.62-7.85
			c-1.06-0.79-1.58-1.78-1.58-2.94c0-0.98,0.36-1.83,1.06-2.54c0.71-0.71,1.56-1.06,2.53-1.06c0.58,0,1.27,0.22,2.08,0.66
			c2.11,1.27,5.42,2.95,9.93,5.02c2.94,1.02,6.15,1.52,9.6,1.52c2.98,0,5.53-1.06,7.64-3.16c2.11-2.11,3.17-4.65,3.17-7.64
			c0-4.4-2-7.62-6-9.65L7.6,70.06c-6.51-3.34-9.77-8.67-9.77-15.98c0-4.95,1.76-9.18,5.29-12.71s7.76-5.29,12.71-5.29
			c8.51,0,15,1.31,19.47,3.92c1.42,0.84,2.13,1.93,2.13,3.28c0,0.98-0.36,1.83-1.06,2.54c-0.71,0.7-1.56,1.06-2.53,1.06
			c-0.36,0-0.87-0.13-1.53-0.38c-5.53-2.15-11.02-3.22-16.47-3.22c-2.98,0-5.53,1.06-7.64,3.16c-2.11,2.11-3.16,4.66-3.16,7.64
			c0,4.4,1.96,7.6,5.89,9.6l20.24,10.36C37.74,77.43,41.04,82.78,41.04,90.08z"/>
	</g>
	<path class="st12" d="M1.42,108.08c-2.4,0-3.6-1.2-3.6-3.6V55.05c0-2.4,1.2-3.6,3.6-3.6s3.6,1.2,3.6,3.6v49.43
		C5.02,106.88,3.82,108.08,1.42,108.08z"/>
	<path class="st8" d="M-22.95,108.08c-2.4,0-3.6-1.2-3.6-3.6V50.64c0-2.4,1.2-3.6,3.6-3.6s3.6,1.2,3.6,3.6v53.84
		C-19.35,106.88-20.55,108.08-22.95,108.08z"/>
	<path class="st8" d="M-10.77,108.08c-2.4,0-3.6-1.2-3.6-3.6v-37.7c0-2.4,1.2-3.6,3.6-3.6s3.6,1.2,3.6,3.6v37.7
		C-7.16,106.88-8.36,108.08-10.77,108.08z"/>
	<path class="st8" d="M1.42,108.08c-2.4,0-3.6-1.2-3.6-3.6v-35.9c0-2.4,1.2-3.6,3.6-3.6s3.6,1.2,3.6,3.6v35.9
		C5.02,106.88,3.82,108.08,1.42,108.08z"/>
	<path class="st12" d="M-34.58,108.08c-2.4,0-3.6-1.2-3.6-3.6V81.56c0-2.4,1.2-3.6,3.6-3.6c2.4,0,3.6,1.2,3.6,3.6v22.91
		C-30.98,106.88-32.18,108.08-34.58,108.08z"/>
	<path class="st8" d="M-34.58,108.08c-2.4,0-3.6-1.2-3.6-3.6v-35.9c0-2.4,1.2-3.6,3.6-3.6c2.4,0,3.6,1.2,3.6,3.6v35.9
		C-30.98,106.88-32.18,108.08-34.58,108.08z"/>
	<path class="st13" d="M-46.77,108.08c-2.4,0-3.6-1.2-3.6-3.6V55.05c0-2.4,1.2-3.6,3.6-3.6c2.4,0,3.6,1.2,3.6,3.6v49.43
		C-43.16,106.88-44.36,108.08-46.77,108.08z"/>
	<path class="st9" d="M41.04,90.08c0,4.95-1.76,9.19-5.29,12.71c-3.53,3.53-7.76,5.29-12.71,5.29c-8.87,0-16.74-2.61-23.62-7.85
		c-1.06-0.79-1.58-1.78-1.58-2.94c0-0.98,0.36-1.83,1.06-2.54c0.71-0.71,1.56-1.06,2.53-1.06c0.58,0,1.27,0.22,2.08,0.66
		c2.11,1.27,5.42,2.95,9.93,5.02c2.94,1.02,6.15,1.52,9.6,1.52c2.98,0,5.53-1.06,7.64-3.16c2.11-2.11,3.17-4.65,3.17-7.64
		c0-4.4-2-7.62-6-9.65L7.6,70.06c-6.51-3.34-9.77-8.67-9.77-15.98c0-4.95,1.76-9.18,5.29-12.71s7.76-5.29,12.71-5.29
		c8.51,0,15,1.31,19.47,3.92c1.42,0.84,2.13,1.93,2.13,3.28c0,0.98-0.36,1.83-1.06,2.54c-0.71,0.7-1.56,1.06-2.53,1.06
		c-0.36,0-0.87-0.13-1.53-0.38c-5.53-2.15-11.02-3.22-16.47-3.22c-2.98,0-5.53,1.06-7.64,3.16c-2.11,2.11-3.16,4.66-3.16,7.64
		c0,4.4,1.96,7.6,5.89,9.6l20.24,10.36C37.74,77.43,41.04,82.78,41.04,90.08z"/>
	<path class="st13" d="M-48.19,101.19l42.81-24.72c1.65-0.95,3.82-0.48,4.82,1.14c1.33,2.16,0.92,3.86-1.22,5.1l-42.81,24.72
		c-1.65,0.95-3.82,0.48-4.82-1.15C-50.73,104.12-50.32,102.42-48.19,101.19z"/>
	<path class="st13" d="M-5.56,82.25l-42.81-24.72c-2.08-1.2-2.52-2.84-1.32-4.92c1.2-2.08,2.84-2.52,4.92-1.32l42.81,24.72
		c2.08,1.2,2.52,2.84,1.32,4.92C-1.84,83.02-3.49,83.45-5.56,82.25z"/>
	<polygon class="st13" points="-6.6,79.76 -44.7,57.14 -44.7,101.69 	"/>
</g>
<g class="st0">
	<path class="st8" d="M100.52,108.23c-2.4,0-3.6-1.2-3.6-3.6V76.26c0-2.4,1.2-3.6,3.6-3.6s3.6,1.2,3.6,3.6v28.36
		C104.12,107.03,102.92,108.23,100.52,108.23z"/>
	<path class="st8" d="M76.52,108.23c-2.4,0-3.6-1.2-3.6-3.6V67.15c0-2.4,1.2-3.6,3.6-3.6s3.6,1.2,3.6,3.6v37.47
		C80.12,107.03,78.92,108.23,76.52,108.23z"/>
	<path class="st8" d="M88.52,108.23c-2.4,0-3.6-1.2-3.6-3.6v-46.8c0-2.4,1.2-3.6,3.6-3.6s3.6,1.2,3.6,3.6v46.8
		C92.12,107.03,90.92,108.23,88.52,108.23z"/>
	<path class="st8" d="M64.52,108.23c-2.4,0-3.6-1.2-3.6-3.6V76.26c0-2.4,1.2-3.6,3.6-3.6c2.4,0,3.6,1.2,3.6,3.6v28.36
		C68.12,107.03,66.92,108.23,64.52,108.23z"/>
	<g class="st1">
		<path class="st2" d="M60.92,39.83c0-2.4,1.2-3.6,3.6-3.6h36c2.4,0,3.6,1.2,3.6,3.6c0,2.4-1.2,3.6-3.6,3.6h-14.4v61.2
			c0,2.4-1.2,3.6-3.6,3.6s-3.6-1.2-3.6-3.6v-61.2h-14.4C62.12,43.43,60.92,42.23,60.92,39.83z"/>
		<path class="st2" d="M148.73,77.9l12.54,25.09c0.29,0.58,0.44,1.13,0.44,1.64c0,0.94-0.36,1.78-1.09,2.51s-1.56,1.09-2.51,1.09
			c-1.53,0-2.62-0.67-3.27-2.01l-13.42-26.84c-0.33,0.03-0.77,0.06-1.31,0.06h-14.4v25.2c0,2.4-1.2,3.6-3.6,3.6s-3.6-1.2-3.6-3.6
			v-64.8c0-2.4,1.2-3.6,3.6-3.6h18c6,0,11.1,2.1,15.3,6.3s6.3,9.3,6.3,15.3C161.71,67.75,157.39,74.44,148.73,77.9z M125.72,43.43
			v28.8h14.4c4.04,0,7.44-1.39,10.23-4.18c2.78-2.78,4.17-6.19,4.17-10.23s-1.39-7.44-4.17-10.23c-2.78-2.78-6.19-4.17-10.23-4.17
			h-14.4C125.72,43.42,125.72,43.43,125.72,43.43z"/>
		<path class="st2" d="M226.51,104.63c0,2.4-1.2,3.6-3.6,3.6c-1.74,0-2.89-0.82-3.44-2.45l-5.18-15.55h-25.96l-5.18,15.55
			c-0.55,1.63-1.69,2.45-3.44,2.45c-2.4,0-3.6-1.2-3.6-3.6c0-0.44,0.06-0.82,0.16-1.15l21.44-64.36c0.66-1.92,1.85-2.89,3.6-2.89
			s2.93,0.93,3.55,2.78l21.49,64.47C226.46,103.81,226.51,104.19,226.51,104.63z M201.31,51.28l-10.58,31.74h21.16L201.31,51.28z"/>
		<path class="st2" d="M266.11,108.22c-1.74,0-2.93-0.93-3.55-2.78l-21.49-64.47c-0.11-0.33-0.16-0.7-0.16-1.15
			c0-2.4,1.2-3.6,3.6-3.6c1.75,0,2.89,0.82,3.44,2.46l18.16,54.48l18.16-54.48c0.54-1.64,1.69-2.46,3.44-2.46c2.4,0,3.6,1.2,3.6,3.6
			c0,0.44-0.05,0.82-0.16,1.15l-21.49,64.47C269.03,107.3,267.85,108.22,266.11,108.22z"/>
		<path class="st2" d="M305.7,104.63v-64.8c0-2.4,1.2-3.6,3.6-3.6h28.8c2.4,0,3.6,1.2,3.6,3.6c0,2.4-1.2,3.6-3.6,3.6h-25.2v21.6h18
			c2.4,0,3.6,1.2,3.6,3.6s-1.2,3.6-3.6,3.6h-18v28.79h25.2c2.4,0,3.6,1.2,3.6,3.6s-1.2,3.6-3.6,3.6h-28.8
			C306.9,108.22,305.7,107.03,305.7,104.63z"/>
		<path class="st2" d="M356.1,39.83c0-2.4,1.2-3.6,3.6-3.6s3.6,1.2,3.6,3.6v61.2h25.2c2.4,0,3.6,1.2,3.6,3.6s-1.2,3.6-3.6,3.6h-28.8
			c-2.4,0-3.6-1.2-3.6-3.6L356.1,39.83L356.1,39.83z"/>
	</g>
	<g class="st1">
		<path class="st3" d="M52.52,108.23c-2.4,0-3.6-1.2-3.6-3.6V61.57c0-2.4,1.2-3.6,3.6-3.6s3.6,1.2,3.6,3.6v43.05
			C56.13,107.03,54.93,108.23,52.52,108.23z"/>
		<polygon class="st3" points="56.13,74.61 74.99,83.79 74.99,91.11 56.13,86.02 		"/>
		<polyline class="st3" points="56.13,98.93 61.59,103.27 61.59,108.23 52.52,105.63 		"/>
		<polygon class="st3" points="48.92,74.61 30.06,83.79 30.06,91.11 48.92,86.02 		"/>
		<polyline class="st3" points="48.92,98.93 43.46,103.27 43.46,108.23 52.52,105.63 		"/>
	</g>
</g>
</svg>
