<?xml version="1.0" encoding="utf-8"?>
<!-- Generator: Adobe Illustrator 27.2.0, SVG Export Plug-In . SVG Version: 6.00 Build 0)  -->
<svg version="1.1" id="Layer_1" xmlns="http://www.w3.org/2000/svg" xmlns:xlink="http://www.w3.org/1999/xlink" x="0px" y="0px"
	 viewBox="0 0 864 144" style="enable-background:new 0 0 864 144;" xml:space="preserve">
<style type="text/css">
	.st0{display:none;}
	.st1{display:inline;}
	.st2{fill:#221F1F;}
	.st3{fill:#AB63FA;}
	.st4{fill:#00CC96;}
	.st5{fill:#636EFA;}
	.st6{fill:#EF553B;}
	.st7{display:none;fill:#41B88E;}
	.st8{display:inline;fill:#FFFFFF;}
	.st9{display:inline;fill:#221F1F;}
	.st10{display:inline;fill:#00CC96;}
	.st11{display:inline;fill:#636EFA;}
	.st12{display:inline;fill:#C6C7C8;}
	.st13{display:inline;fill:#EF553B;}
	.st14{fill:#FFFFFF;}
	.st15{fill:#C7C8CA;}
	.st16{fill:#211E1F;}
</style>
<g class="st0">
	<g class="st1">
		<path class="st2" d="M66.92,90.49V39.6c0-2.4,1.2-3.6,3.6-3.6c2.4,0,3.6,1.2,3.6,3.6v64.79c0,2.4-1.2,3.6-3.6,3.6
			c-1.45,0-2.51-0.61-3.17-1.8L38.12,53.46v50.94c0,2.4-1.2,3.6-3.6,3.6c-2.4,0-3.6-1.2-3.6-3.6V39.6c0-2.4,1.2-3.6,3.6-3.6
			c1.42,0,2.53,0.71,3.33,2.13L66.92,90.49z"/>
		<path class="st2" d="M131.71,86.4c0,5.97-2.11,11.06-6.33,15.27c-4.22,4.22-9.31,6.33-15.27,6.33c-5.96,0-11.06-2.11-15.27-6.33
			s-6.33-9.3-6.33-15.27V57.6c0-5.96,2.11-11.06,6.33-15.27S104.15,36,110.11,36c6,0,11.1,2.1,15.3,6.31c4.2,4.19,6.3,9.29,6.3,15.3
			V86.4z M124.51,86.4V57.6c0-4.04-1.39-7.44-4.17-10.23c-2.78-2.78-6.19-4.18-10.23-4.18c-4.04,0-7.44,1.39-10.22,4.18
			c-2.78,2.78-4.17,6.19-4.17,10.23V86.4c0,4.04,1.39,7.44,4.17,10.23c2.78,2.78,6.19,4.18,10.22,4.18c4.04,0,7.44-1.39,10.23-4.18
			C123.12,93.84,124.51,90.43,124.51,86.4z"/>
		<path class="st2" d="M171.31,108c-1.74,0-2.93-0.93-3.55-2.78l-21.49-64.47c-0.11-0.33-0.16-0.71-0.16-1.15c0-2.4,1.2-3.6,3.6-3.6
			c1.75,0,2.89,0.82,3.44,2.46l18.16,54.49l18.16-54.49c0.54-1.64,1.69-2.46,3.44-2.46c2.4,0,3.6,1.2,3.6,3.6
			c0,0.43-0.05,0.82-0.16,1.15l-21.49,64.47C174.24,107.07,173.06,108,171.31,108z"/>
		<path class="st2" d="M210.9,104.4V39.6c0-2.4,1.2-3.6,3.6-3.6h28.8c2.4,0,3.6,1.2,3.6,3.6c0,2.4-1.2,3.6-3.6,3.6h-25.2v21.6h18
			c2.4,0,3.6,1.2,3.6,3.6c0,2.41-1.2,3.6-3.6,3.6h-18v28.8h25.2c2.4,0,3.6,1.2,3.6,3.6c0,2.4-1.2,3.6-3.6,3.6h-28.8
			C212.1,108,210.9,106.8,210.9,104.4z"/>
		<path class="st2" d="M261.3,39.6c0-2.4,1.2-3.6,3.6-3.6c2.4,0,3.6,1.2,3.6,3.6v61.2h25.2c2.4,0,3.6,1.2,3.6,3.6
			c0,2.4-1.2,3.6-3.6,3.6h-28.8c-2.4,0-3.6-1.2-3.6-3.6V39.6z"/>
		<path class="st2" d="M311.7,39.6c0-2.4,1.2-3.6,3.6-3.6h36c2.4,0,3.6,1.2,3.6,3.6c0,2.4-1.2,3.6-3.6,3.6h-14.4v61.2
			c0,2.4-1.2,3.6-3.6,3.6c-2.4,0-3.6-1.2-3.6-3.6V43.2h-14.4C312.9,43.2,311.7,42,311.7,39.6z"/>
		<path class="st2" d="M398.09,72v32.4c0,2.4-1.2,3.6-3.6,3.6c-2.4,0-3.6-1.2-3.6-3.6V72l-20.94-30.32
			c-0.43-0.61-0.66-1.31-0.66-2.07c0-2.4,1.2-3.6,3.6-3.6c1.31,0,2.31,0.52,3,1.53l18.6,27.05l18.6-27.05
			c0.69-1.02,1.69-1.53,3-1.53c2.4,0,3.6,1.2,3.6,3.6c0,0.76-0.22,1.46-0.66,2.07L398.09,72z"/>
		<path class="st2" d="M462.34,108c-2.4,0-3.6-1.2-3.6-3.6V39.6c0-2.4,1.2-3.6,3.6-3.6c2.4,0,3.6,1.2,3.6,3.6v64.79
			C465.94,106.8,464.74,108,462.34,108z"/>
		<path class="st2" d="M516.34,90.49V39.6c0-2.4,1.2-3.6,3.6-3.6s3.6,1.2,3.6,3.6v64.79c0,2.4-1.2,3.6-3.6,3.6
			c-1.45,0-2.51-0.61-3.17-1.8l-29.23-52.74v50.94c0,2.4-1.2,3.6-3.6,3.6c-2.4,0-3.6-1.2-3.6-3.6V39.6c0-2.4,1.2-3.6,3.6-3.6
			c1.42,0,2.53,0.71,3.33,2.13L516.34,90.49z"/>
		<path class="st2" d="M581.13,90c0,4.95-1.76,9.18-5.29,12.71c-3.53,3.52-7.76,5.29-12.71,5.29c-8.87,0-16.74-2.62-23.61-7.85
			c-1.06-0.8-1.58-1.79-1.58-2.95c0-0.98,0.36-1.83,1.06-2.54c0.71-0.7,1.56-1.06,2.53-1.06c0.58,0,1.27,0.22,2.08,0.66
			c2.11,1.28,5.42,2.95,9.93,5.02c2.94,1.02,6.15,1.53,9.6,1.53c2.98,0,5.53-1.06,7.64-3.17c2.11-2.1,3.17-4.65,3.17-7.63
			c0-4.4-2-7.62-6-9.66L547.7,69.99c-6.51-3.35-9.77-8.67-9.77-15.99c0-4.95,1.76-9.18,5.29-12.71c3.53-3.52,7.76-5.29,12.71-5.29
			c8.51,0,15,1.31,19.47,3.93c1.42,0.84,2.13,1.92,2.13,3.27c0,0.98-0.36,1.83-1.06,2.54c-0.71,0.71-1.56,1.06-2.53,1.06
			c-0.36,0-0.87-0.12-1.53-0.38c-5.53-2.15-11.02-3.22-16.47-3.22c-2.98,0-5.53,1.06-7.64,3.17c-2.11,2.1-3.16,4.65-3.16,7.63
			c0,4.4,1.96,7.6,5.89,9.6l20.24,10.37C577.84,77.35,581.13,82.69,581.13,90z"/>
		<path class="st2" d="M599.13,108c-2.4,0-3.6-1.2-3.6-3.6V39.6c0-2.4,1.2-3.6,3.6-3.6c2.4,0,3.6,1.2,3.6,3.6v64.79
			C602.73,106.8,601.53,108,599.13,108z"/>
		<path class="st2" d="M635.13,100.8h18V72h-7.2c-2.4,0-3.6-1.2-3.6-3.6c0-2.4,1.2-3.6,3.6-3.6h10.8c2.4,0,3.6,1.2,3.6,3.6v36
			c0,2.4-1.2,3.6-3.6,3.6h-21.6c-4.98,0-9.23-1.75-12.73-5.27c-3.51-3.51-5.27-7.76-5.27-12.73V54c0-4.98,1.76-9.22,5.27-12.73
			c3.51-3.51,7.75-5.27,12.73-5.27h21.6c2.4,0,3.6,1.2,3.6,3.6c0,2.4-1.2,3.6-3.6,3.6h-21.6c-3.02,0-5.57,1.06-7.67,3.17
			c-2.09,2.1-3.13,4.65-3.13,7.63v36c0,3.01,1.04,5.57,3.13,7.67C629.56,99.75,632.11,100.8,635.13,100.8z"/>
		<path class="st2" d="M674.72,104.4V39.6c0-2.4,1.2-3.6,3.6-3.6c2.4,0,3.6,1.2,3.6,3.6v25.2h28.8V39.6c0-2.4,1.2-3.6,3.6-3.6
			c2.4,0,3.6,1.2,3.6,3.6v64.79c0,2.4-1.2,3.6-3.6,3.6c-2.4,0-3.6-1.2-3.6-3.6V72h-28.8v32.4c0,2.4-1.2,3.6-3.6,3.6
			C675.92,108,674.72,106.8,674.72,104.4z"/>
		<path class="st2" d="M732.32,39.6c0-2.4,1.2-3.6,3.6-3.6h36c2.4,0,3.6,1.2,3.6,3.6c0,2.4-1.2,3.6-3.6,3.6h-14.4v61.2
			c0,2.4-1.2,3.6-3.6,3.6c-2.4,0-3.6-1.2-3.6-3.6V43.2h-14.4C733.52,43.2,732.32,42,732.32,39.6z"/>
		<path class="st2" d="M833.11,90c0,4.95-1.76,9.18-5.29,12.71c-3.53,3.52-7.76,5.29-12.71,5.29c-8.87,0-16.74-2.62-23.61-7.85
			c-1.06-0.8-1.58-1.79-1.58-2.95c0-0.98,0.36-1.83,1.06-2.54c0.71-0.7,1.56-1.06,2.53-1.06c0.58,0,1.27,0.22,2.08,0.66
			c2.11,1.28,5.42,2.95,9.93,5.02c2.94,1.02,6.15,1.53,9.6,1.53c2.98,0,5.53-1.06,7.64-3.17c2.11-2.1,3.17-4.65,3.17-7.63
			c0-4.4-2-7.62-6-9.66l-20.23-10.36c-6.51-3.35-9.77-8.67-9.77-15.99c0-4.95,1.76-9.18,5.29-12.71c3.53-3.52,7.76-5.29,12.71-5.29
			c8.51,0,15,1.31,19.47,3.93c1.42,0.84,2.13,1.92,2.13,3.27c0,0.98-0.36,1.83-1.06,2.54c-0.71,0.71-1.56,1.06-2.53,1.06
			c-0.36,0-0.87-0.12-1.53-0.38c-5.53-2.15-11.02-3.22-16.47-3.22c-2.98,0-5.53,1.06-7.64,3.17c-2.11,2.1-3.16,4.65-3.16,7.63
			c0,4.4,1.96,7.6,5.89,9.6l20.24,10.37C829.82,77.35,833.11,82.69,833.11,90z"/>
	</g>
	<g class="st1">
		<path class="st3" d="M70.48,108c-2.4,0-3.6-1.2-3.6-3.6V39.6c0-2.4,1.2-3.6,3.6-3.6c2.4,0,3.6,1.2,3.6,3.6v64.79
			C74.09,106.8,72.89,108,70.48,108z"/>
		<path class="st4" d="M34.49,108c-2.4,0-3.6-1.2-3.6-3.6V39.6c0-2.4,1.2-3.6,3.6-3.6c2.4,0,3.6,1.2,3.6,3.6v64.79
			C38.09,106.8,36.89,108,34.49,108z"/>
		<path class="st5" d="M46.11,108c-2.4,0-3.6-1.2-3.6-3.6V61.29c0-2.4,1.2-3.6,3.6-3.6c2.4,0,3.6,1.2,3.6,3.6v43.11
			C49.72,106.8,48.52,108,46.11,108z"/>
		<path class="st6" d="M58.25,108c-2.4,0-3.6-1.2-3.6-3.6V83.05c0-2.4,1.2-3.6,3.6-3.6c2.4,0,3.6,1.2,3.6,3.6v21.34
			C61.85,106.8,60.65,108,58.25,108z"/>
		<path class="st7" d="M519.93,108c-2.4,0-3.6-1.2-3.6-3.6V39.6c0-2.4,1.2-3.6,3.6-3.6c2.4,0,3.6,1.2,3.6,3.6v64.79
			C523.53,106.8,522.33,108,519.93,108z"/>
		<path class="st7" d="M483.93,108c-2.4,0-3.6-1.2-3.6-3.6V39.6c0-2.4,1.2-3.6,3.6-3.6c2.4,0,3.6,1.2,3.6,3.6v64.79
			C487.54,106.8,486.34,108,483.93,108z"/>
		<path class="st7" d="M495.77,108c-2.4,0-3.6-1.2-3.6-3.6V61.29c0-2.4,1.2-3.6,3.6-3.6c2.4,0,3.6,1.2,3.6,3.6v43.11
			C499.37,106.8,498.17,108,495.77,108z"/>
		<path class="st7" d="M507.9,108c-2.4,0-3.6-1.2-3.6-3.6V83.05c0-2.4,1.2-3.6,3.6-3.6c2.4,0,3.6,1.2,3.6,3.6v21.34
			C511.51,106.8,510.31,108,507.9,108z"/>
	</g>
</g>
<g class="st0">
	<path class="st8" d="M334.77,107.81c-2.39,0-3.59-1.2-3.59-3.59V71.9c0-2.39,1.2-3.59,3.59-3.59c2.4,0,3.59,1.2,3.59,3.59v32.31
		C338.37,106.61,337.17,107.81,334.77,107.81z"/>
	<path class="st8" d="M356.31,107.81c-2.39,0-3.59-1.2-3.59-3.59V43.65c0-2.39,1.2-3.59,3.59-3.59c2.4,0,3.59,1.2,3.59,3.59v60.56
		C359.91,106.61,358.71,107.81,356.31,107.81z"/>
	<path class="st8" d="M345.54,107.81c-2.39,0-3.59-1.2-3.59-3.59V56.45c0-2.39,1.2-3.59,3.59-3.59c2.4,0,3.59,1.2,3.59,3.59v47.76
		C349.14,106.61,347.94,107.81,345.54,107.81z"/>
	<g class="st1">
		<path class="st2" d="M428.13,39.59v46.68c0,5.95-2.1,11.03-6.31,15.23s-9.29,6.31-15.23,6.31s-11.03-2.1-15.23-6.31
			s-6.31-9.29-6.31-15.23V39.59c0-2.39,1.2-3.59,3.59-3.59c2.4,0,3.59,1.19,3.59,3.59v46.68c0,4.03,1.38,7.42,4.16,10.2
			c2.77,2.77,6.17,4.16,10.2,4.16s7.42-1.39,10.2-4.16c2.77-2.78,4.16-6.17,4.16-10.2V39.59c0-2.39,1.2-3.59,3.59-3.59
			C426.93,36,428.13,37.2,428.13,39.59z"/>
		<path class="st2" d="M485.57,89.85c0,4.93-1.76,9.16-5.28,12.68c-3.52,3.52-7.74,5.28-12.68,5.28c-8.85,0-16.7-2.61-23.55-7.83
			c-1.05-0.79-1.58-1.77-1.58-2.93c0-0.98,0.36-1.83,1.06-2.53c0.71-0.71,1.55-1.06,2.53-1.06c0.58,0,1.27,0.22,2.07,0.65
			c2.1,1.27,5.4,2.94,9.9,5.01c2.94,1.01,6.13,1.52,9.57,1.52c2.97,0,5.51-1.05,7.62-3.15c2.1-2.11,3.16-4.64,3.16-7.62
			c0-4.39-2-7.6-5.99-9.62l-20.18-10.34c-6.49-3.33-9.74-8.65-9.74-15.93c0-4.93,1.76-9.16,5.28-12.68
			c3.52-3.52,7.74-5.28,12.68-5.28c8.49,0,14.96,1.31,19.42,3.91c1.42,0.84,2.12,1.93,2.12,3.27c0,0.98-0.36,1.82-1.06,2.53
			c-0.71,0.7-1.55,1.06-2.53,1.06c-0.36,0-0.87-0.13-1.52-0.38c-5.51-2.14-10.99-3.21-16.43-3.21c-2.97,0-5.51,1.05-7.62,3.15
			c-2.1,2.11-3.15,4.65-3.15,7.62c0,4.39,1.96,7.58,5.87,9.57l20.18,10.33C482.29,77.23,485.57,82.57,485.57,89.85z"/>
		<path class="st2" d="M503.52,107.8c-2.39,0-3.59-1.19-3.59-3.59V39.59c0-2.39,1.2-3.59,3.59-3.59c2.4,0,3.59,1.19,3.59,3.59v64.63
			C507.12,106.61,505.92,107.8,503.52,107.8z"/>
		<path class="st2" d="M553.78,36c2.39,0,3.59,1.19,3.59,3.59s-1.2,3.59-3.59,3.59h-14.36c-3.01,0-5.56,1.05-7.64,3.15
			c-2.08,2.11-3.12,4.65-3.12,7.62v35.89c0,2.98,1.05,5.51,3.15,7.62c2.1,2.1,4.64,3.15,7.62,3.15h14.36c2.39,0,3.59,1.2,3.59,3.59
			c0,2.39-1.2,3.59-3.59,3.59h-14.36c-4.97,0-9.2-1.75-12.7-5.24c-3.5-3.5-5.25-7.73-5.25-12.71V53.96c0-4.97,1.75-9.2,5.25-12.7
			c3.5-3.5,7.73-5.25,12.7-5.25H553.78z"/>
		<path class="st2" d="M367.1,36c2.39,0,3.59,1.19,3.59,3.59v64.63c0,2.39-1.2,3.59-3.59,3.59s-3.59-1.19-3.59-3.59V51.4
			l-14.63,21.92c-0.98,1.45-2.09,2.17-3.32,2.17c-1.27,0-2.39-0.73-3.37-2.17L327.61,51.4v52.82c0,2.39-1.2,3.59-3.59,3.59
			c-2.39,0-3.59-1.19-3.59-3.59V39.59c0-2.39,1.2-3.59,3.59-3.59c1.31,0,2.36,0.6,3.16,1.8l18.38,27.57l18.49-27.79
			C364.74,36.53,365.76,36,367.1,36z"/>
	</g>
	<path class="st9" d="M367.08,107.81c-2.39,0-3.59-1.2-3.59-3.59V39.59c0-2.39,1.2-3.59,3.59-3.59c2.4,0,3.59,1.2,3.59,3.59v64.62
		C370.68,106.61,369.48,107.81,367.08,107.81z"/>
	<path class="st10" d="M324.01,107.81c-2.39,0-3.59-1.2-3.59-3.59V39.59c0-2.39,1.2-3.59,3.59-3.59c2.4,0,3.59,1.2,3.59,3.59v64.62
		C327.6,106.61,326.4,107.81,324.01,107.81z"/>
	
		<ellipse transform="matrix(0.9329 -0.3601 0.3601 0.9329 -17.8199 119.9535)" class="st10" cx="313.02" cy="107.8" rx="15.03" ry="11.14"/>
</g>
<g class="st0">
	<path class="st8" d="M351.99,108.23c-2.4,0-3.6-1.2-3.6-3.6V70.38c0-2.4,1.2-3.6,3.6-3.6c2.4,0,3.6,1.2,3.6,3.6v34.24
		C355.59,107.02,354.39,108.23,351.99,108.23z"/>
	<path class="st8" d="M327.62,108.23c-2.4,0-3.6-1.2-3.6-3.6V60.59c0-2.4,1.2-3.6,3.6-3.6c2.4,0,3.6,1.2,3.6,3.6v44.04
		C331.22,107.02,330.02,108.23,327.62,108.23z"/>
	<path class="st8" d="M339.75,108.23c-2.4,0-3.6-1.2-3.6-3.6v-48.6c0-2.4,1.2-3.6,3.6-3.6c2.4,0,3.6,1.2,3.6,3.6v48.6
		C343.35,107.02,342.15,108.23,339.75,108.23z"/>
	<g class="st1">
		<path class="st2" d="M345.33,68.24c6.83,4.08,10.25,10.2,10.25,18.38c0,5.96-2.11,11.06-6.33,15.27s-9.31,6.32-15.27,6.32h-18
			c-2.4,0-3.6-1.2-3.6-3.6v-64.8c0-2.4,1.2-3.6,3.6-3.6h18c5.05,0,9.32,1.74,12.79,5.21c3.47,3.47,5.21,7.74,5.21,12.79
			C351.99,59.97,349.77,64.65,345.33,68.24z M319.59,72.23v28.79h14.4c4.04,0,7.44-1.39,10.23-4.17c2.78-2.78,4.17-6.19,4.17-10.23
			c0-4.04-1.39-7.44-4.17-10.23c-2.78-2.78-6.19-4.17-10.23-4.17H319.59z M319.59,43.43v21.6h14.4c2.98,0,5.53-1.05,7.64-3.16
			c2.11-2.1,3.17-4.65,3.17-7.63c0-2.98-1.06-5.53-3.17-7.64c-2.11-2.1-4.66-3.16-7.64-3.16H319.59z"/>
		<path class="st2" d="M413.18,86.63c0,5.96-2.11,11.06-6.33,15.27s-9.31,6.32-15.27,6.32s-11.06-2.1-15.27-6.32
			s-6.33-9.31-6.33-15.27v-28.8c0-5.96,2.11-11.05,6.33-15.27c4.22-4.22,9.31-6.32,15.27-6.32c6,0,11.1,2.1,15.3,6.3
			c4.2,4.2,6.3,9.3,6.3,15.3V86.63z M405.98,86.63v-28.8c0-4.04-1.39-7.44-4.17-10.23c-2.78-2.78-6.19-4.17-10.23-4.17
			s-7.44,1.39-10.22,4.17c-2.78,2.78-4.17,6.19-4.17,10.23v28.8c0,4.04,1.39,7.44,4.17,10.23c2.78,2.78,6.19,4.17,10.22,4.17
			s7.44-1.39,10.23-4.17C404.59,94.07,405.98,90.67,405.98,86.63z"/>
		<path class="st2" d="M470.78,86.63c0,5.96-2.11,11.06-6.33,15.27s-9.31,6.32-15.27,6.32s-11.06-2.1-15.27-6.32
			s-6.33-9.31-6.33-15.27v-28.8c0-5.96,2.11-11.05,6.33-15.27c4.22-4.22,9.31-6.32,15.27-6.32c6,0,11.1,2.1,15.3,6.3
			c4.2,4.2,6.3,9.3,6.3,15.3V86.63z M463.58,86.63v-28.8c0-4.04-1.39-7.44-4.17-10.23c-2.78-2.78-6.19-4.17-10.23-4.17
			s-7.44,1.39-10.22,4.17c-2.78,2.78-4.17,6.19-4.17,10.23v28.8c0,4.04,1.39,7.44,4.17,10.23c2.78,2.78,6.19,4.17,10.22,4.17
			s7.44-1.39,10.23-4.17C462.19,94.07,463.58,90.67,463.58,86.63z"/>
		<path class="st2" d="M501.7,70.59l-9.32,10.25v23.78c0,2.4-1.2,3.6-3.6,3.6c-2.4,0-3.6-1.2-3.6-3.6v-64.8c0-2.4,1.2-3.6,3.6-3.6
			c2.4,0,3.6,1.2,3.6,3.6V70.1l29.67-32.68c0.72-0.79,1.63-1.2,2.73-1.2c2.4,0,3.6,1.2,3.6,3.6c0,0.91-0.33,1.73-0.98,2.46
			l-20.56,22.64l21.05,37.91c0.33,0.58,0.49,1.18,0.49,1.8c0,0.91-0.37,1.74-1.12,2.48c-0.75,0.75-1.57,1.11-2.48,1.11
			c-1.45,0-2.53-0.63-3.22-1.91L501.7,70.59z"/>
		<path class="st2" d="M585.97,90.22c0,4.95-1.76,9.19-5.29,12.71c-3.53,3.53-7.76,5.29-12.71,5.29c-8.87,0-16.74-2.61-23.61-7.85
			c-1.06-0.79-1.58-1.78-1.58-2.94c0-0.98,0.36-1.83,1.06-2.54c0.71-0.71,1.56-1.06,2.53-1.06c0.58,0,1.27,0.22,2.08,0.66
			c2.11,1.27,5.42,2.95,9.93,5.02c2.94,1.02,6.15,1.52,9.6,1.52c2.98,0,5.53-1.06,7.64-3.16c2.11-2.11,3.17-4.65,3.17-7.64
			c0-4.4-2-7.62-6-9.65l-20.23-10.37c-6.51-3.34-9.77-8.67-9.77-15.98c0-4.95,1.76-9.18,5.29-12.71c3.53-3.53,7.76-5.29,12.71-5.29
			c8.51,0,15,1.31,19.47,3.92c1.42,0.84,2.13,1.93,2.13,3.28c0,0.98-0.36,1.83-1.06,2.54c-0.71,0.7-1.56,1.06-2.53,1.06
			c-0.36,0-0.87-0.13-1.53-0.38c-5.53-2.15-11.02-3.22-16.47-3.22c-2.98,0-5.53,1.06-7.64,3.16c-2.11,2.11-3.16,4.66-3.16,7.64
			c0,4.4,1.96,7.6,5.89,9.6l20.24,10.36C582.68,77.57,585.97,82.92,585.97,90.22z"/>
	</g>
	<path class="st11" d="M315.99,108.23c-2.4,0-3.6-1.2-3.6-3.6V39.83c0-2.4,1.2-3.6,3.6-3.6c2.4,0,3.6,1.2,3.6,3.6v64.79
		C319.59,107.02,318.39,108.23,315.99,108.23z"/>
	<path class="st11" d="M304.11,108.23c-2.4,0-3.6-1.2-3.6-3.6V39.83c0-2.4,1.2-3.6,3.6-3.6c2.4,0,3.6,1.2,3.6,3.6v64.79
		C307.71,107.02,306.51,108.23,304.11,108.23z"/>
	<path class="st11" d="M292.23,108.23c-2.4,0-3.6-1.2-3.6-3.6V39.83c0-2.4,1.2-3.6,3.6-3.6c2.4,0,3.6,1.2,3.6,3.6v64.79
		C295.83,107.02,294.63,108.23,292.23,108.23z"/>
	<path class="st11" d="M271.53,107.83c-2.37-0.4-3.35-1.79-2.94-4.16l8.18-47.9c0.4-2.37,1.79-3.35,4.15-2.95
		c2.37,0.4,3.35,1.79,2.95,4.16l-8.18,47.9C275.28,107.25,273.9,108.23,271.53,107.83z"/>
</g>
<g class="st0">
	<path class="st8" d="M229.05,108.08c-2.4,0-3.6-1.2-3.6-3.6V57.68c0-2.4,1.2-3.6,3.6-3.6c2.4,0,3.6,1.2,3.6,3.6v46.79
		C232.65,106.88,231.45,108.08,229.05,108.08z"/>
	<path class="st8" d="M241.23,108.08c-2.4,0-3.6-1.2-3.6-3.6V50.64c0-2.4,1.2-3.6,3.6-3.6c2.4,0,3.6,1.2,3.6,3.6v53.84
		C244.84,106.88,243.64,108.08,241.23,108.08z"/>
	<path class="st8" d="M253.42,108.08c-2.4,0-3.6-1.2-3.6-3.6v-35.9c0-2.4,1.2-3.6,3.6-3.6c2.4,0,3.6,1.2,3.6,3.6v35.9
		C257.02,106.88,255.82,108.08,253.42,108.08z"/>
	<g class="st1">
		<path class="st2" d="M271.44,39.68c0-2.4,1.2-3.6,3.6-3.6h36c2.4,0,3.6,1.2,3.6,3.6s-1.2,3.6-3.6,3.6h-14.4v61.21
			c0,2.4-1.2,3.6-3.6,3.6c-2.4,0-3.6-1.2-3.6-3.6V43.28h-14.4C272.63,43.28,271.44,42.08,271.44,39.68z"/>
		<path class="st2" d="M359.26,77.75l12.54,25.09c0.29,0.58,0.44,1.13,0.44,1.64c0,0.94-0.36,1.78-1.09,2.51
			c-0.73,0.73-1.56,1.09-2.51,1.09c-1.53,0-2.62-0.67-3.27-2.01l-13.42-26.84c-0.33,0.03-0.77,0.06-1.31,0.06h-14.4v25.2
			c0,2.4-1.2,3.6-3.6,3.6c-2.4,0-3.6-1.2-3.6-3.6V39.68c0-2.4,1.2-3.6,3.6-3.6h18c6,0,11.1,2.1,15.3,6.3c4.2,4.2,6.3,9.3,6.3,15.3
			C372.24,67.61,367.92,74.3,359.26,77.75z M336.24,43.28v28.8h14.4c4.04,0,7.44-1.39,10.23-4.18c2.78-2.78,4.17-6.19,4.17-10.23
			s-1.39-7.44-4.17-10.23c-2.78-2.78-6.19-4.17-10.23-4.17H336.24z"/>
		<path class="st2" d="M386.64,104.49V39.68c0-2.4,1.2-3.6,3.6-3.6h28.8c2.4,0,3.6,1.2,3.6,3.6s-1.2,3.6-3.6,3.6h-25.2v21.6h18
			c2.4,0,3.6,1.2,3.6,3.6s-1.2,3.6-3.6,3.6h-18v28.8h25.2c2.4,0,3.6,1.2,3.6,3.6s-1.2,3.6-3.6,3.6h-28.8
			C387.84,108.08,386.64,106.89,386.64,104.49z"/>
		<path class="st2" d="M487.45,104.49c0,2.4-1.2,3.6-3.6,3.6c-1.74,0-2.89-0.82-3.44-2.45l-5.18-15.55h-25.97l-5.18,15.55
			c-0.55,1.63-1.69,2.45-3.44,2.45c-2.4,0-3.6-1.2-3.6-3.6c0-0.44,0.06-0.82,0.16-1.15l21.44-64.37c0.66-1.92,1.86-2.89,3.6-2.89
			c1.75,0,2.93,0.93,3.55,2.78l21.49,64.47C487.39,103.67,487.45,104.05,487.45,104.49z M462.25,51.14l-10.58,31.75h21.16
			L462.25,51.14z"/>
		<path class="st2" d="M548.65,36.08c2.4,0,3.6,1.2,3.6,3.6v64.81c0,2.4-1.2,3.6-3.6,3.6s-3.6-1.2-3.6-3.6V51.52L530.38,73.5
			c-0.98,1.45-2.09,2.18-3.33,2.18c-1.27,0-2.4-0.73-3.38-2.18l-14.62-21.98v52.97c0,2.4-1.2,3.6-3.6,3.6c-2.4,0-3.6-1.2-3.6-3.6
			V39.68c0-2.4,1.2-3.6,3.6-3.6c1.31,0,2.37,0.6,3.17,1.8l18.44,27.65l18.55-27.87C546.29,36.61,547.3,36.08,548.65,36.08z"/>
		<path class="st2" d="M570.25,108.08c-2.4,0-3.6-1.2-3.6-3.6V39.68c0-2.4,1.2-3.6,3.6-3.6c2.4,0,3.6,1.2,3.6,3.6v64.81
			C573.85,106.89,572.65,108.08,570.25,108.08z"/>
		<path class="st2" d="M624.25,90.57V39.68c0-2.4,1.2-3.6,3.6-3.6c2.4,0,3.6,1.2,3.6,3.6v64.81c0,2.4-1.2,3.6-3.6,3.6
			c-1.45,0-2.51-0.6-3.17-1.8l-29.23-52.74v50.95c0,2.4-1.2,3.6-3.6,3.6c-2.4,0-3.6-1.2-3.6-3.6V39.68c0-2.4,1.2-3.6,3.6-3.6
			c1.42,0,2.53,0.7,3.33,2.13L624.25,90.57z"/>
		<path class="st2" d="M663.85,100.88h18v-28.8h-7.2c-2.4,0-3.6-1.2-3.6-3.6s1.2-3.6,3.6-3.6h10.8c2.4,0,3.6,1.2,3.6,3.6v36
			c0,2.4-1.2,3.6-3.6,3.6h-21.6c-4.98,0-9.23-1.75-12.74-5.26c-3.51-3.51-5.27-7.76-5.27-12.74v-36c0-4.99,1.76-9.23,5.27-12.74
			c3.51-3.51,7.75-5.27,12.74-5.27h21.6c2.4,0,3.6,1.2,3.6,3.6s-1.2,3.6-3.6,3.6h-21.6c-3.02,0-5.57,1.06-7.67,3.16
			c-2.09,2.11-3.13,4.66-3.13,7.64v36c0,3.02,1.04,5.58,3.13,7.67C658.28,99.84,660.83,100.88,663.85,100.88z"/>
		<path class="st2" d="M257.04,90.08c0,4.95-1.76,9.19-5.29,12.71c-3.53,3.53-7.76,5.29-12.71,5.29c-8.87,0-16.74-2.61-23.62-7.85
			c-1.06-0.79-1.58-1.78-1.58-2.94c0-0.98,0.36-1.83,1.06-2.54c0.71-0.71,1.56-1.06,2.53-1.06c0.58,0,1.27,0.22,2.08,0.66
			c2.11,1.27,5.42,2.95,9.93,5.02c2.94,1.02,6.15,1.52,9.6,1.52c2.98,0,5.53-1.06,7.64-3.16c2.11-2.11,3.17-4.65,3.17-7.64
			c0-4.4-2-7.62-6-9.65L223.6,70.06c-6.51-3.34-9.77-8.67-9.77-15.98c0-4.95,1.76-9.18,5.29-12.71c3.53-3.53,7.76-5.29,12.71-5.29
			c8.51,0,15,1.31,19.47,3.92c1.42,0.84,2.13,1.93,2.13,3.28c0,0.98-0.36,1.83-1.06,2.54c-0.71,0.7-1.56,1.06-2.53,1.06
			c-0.36,0-0.87-0.13-1.53-0.38c-5.53-2.15-11.02-3.22-16.47-3.22c-2.98,0-5.53,1.06-7.64,3.16c-2.11,2.11-3.16,4.66-3.16,7.64
			c0,4.4,1.96,7.6,5.89,9.6l20.24,10.36C253.74,77.43,257.04,82.78,257.04,90.08z"/>
	</g>
	<path class="st8" d="M217.42,108.08c-2.4,0-3.6-1.2-3.6-3.6V55.05c0-2.4,1.2-3.6,3.6-3.6c2.4,0,3.6,1.2,3.6,3.6v49.43
		C221.02,106.88,219.82,108.08,217.42,108.08z"/>
	<path class="st8" d="M193.05,108.08c-2.4,0-3.6-1.2-3.6-3.6V50.64c0-2.4,1.2-3.6,3.6-3.6c2.4,0,3.6,1.2,3.6,3.6v53.84
		C196.65,106.88,195.45,108.08,193.05,108.08z"/>
	<path class="st8" d="M205.23,108.08c-2.4,0-3.6-1.2-3.6-3.6v-37.7c0-2.4,1.2-3.6,3.6-3.6c2.4,0,3.6,1.2,3.6,3.6v37.7
		C208.84,106.88,207.64,108.08,205.23,108.08z"/>
	<path class="st8" d="M217.42,108.08c-2.4,0-3.6-1.2-3.6-3.6v-35.9c0-2.4,1.2-3.6,3.6-3.6c2.4,0,3.6,1.2,3.6,3.6v35.9
		C221.02,106.88,219.82,108.08,217.42,108.08z"/>
	<path class="st12" d="M181.42,108.08c-2.4,0-3.6-1.2-3.6-3.6V81.56c0-2.4,1.2-3.6,3.6-3.6c2.4,0,3.6,1.2,3.6,3.6v22.91
		C185.02,106.88,183.82,108.08,181.42,108.08z"/>
	<path class="st8" d="M181.42,108.08c-2.4,0-3.6-1.2-3.6-3.6v-35.9c0-2.4,1.2-3.6,3.6-3.6c2.4,0,3.6,1.2,3.6,3.6v35.9
		C185.02,106.88,183.82,108.08,181.42,108.08z"/>
	<path class="st13" d="M169.23,108.08c-2.4,0-3.6-1.2-3.6-3.6V55.05c0-2.4,1.2-3.6,3.6-3.6c2.4,0,3.6,1.2,3.6,3.6v49.43
		C172.84,106.88,171.64,108.08,169.23,108.08z"/>
	<path class="st9" d="M257.04,90.08c0,4.95-1.76,9.19-5.29,12.71c-3.53,3.53-7.76,5.29-12.71,5.29c-8.87,0-16.74-2.61-23.62-7.85
		c-1.06-0.79-1.58-1.78-1.58-2.94c0-0.98,0.36-1.83,1.06-2.54c0.71-0.71,1.56-1.06,2.53-1.06c0.58,0,1.27,0.22,2.08,0.66
		c2.11,1.27,5.42,2.95,9.93,5.02c2.94,1.02,6.15,1.52,9.6,1.52c2.98,0,5.53-1.06,7.64-3.16c2.11-2.11,3.17-4.65,3.17-7.64
		c0-4.4-2-7.62-6-9.65L223.6,70.06c-6.51-3.34-9.77-8.67-9.77-15.98c0-4.95,1.76-9.18,5.29-12.71c3.53-3.53,7.76-5.29,12.71-5.29
		c8.51,0,15,1.31,19.47,3.92c1.42,0.84,2.13,1.93,2.13,3.28c0,0.98-0.36,1.83-1.06,2.54c-0.71,0.7-1.56,1.06-2.53,1.06
		c-0.36,0-0.87-0.13-1.53-0.38c-5.53-2.15-11.02-3.22-16.47-3.22c-2.98,0-5.53,1.06-7.64,3.16c-2.11,2.11-3.16,4.66-3.16,7.64
		c0,4.4,1.96,7.6,5.89,9.6l20.24,10.36C253.74,77.43,257.04,82.78,257.04,90.08z"/>
	<path class="st13" d="M167.81,101.19l42.81-24.72c1.65-0.95,3.82-0.48,4.82,1.14c1.33,2.16,0.92,3.86-1.22,5.1l-42.81,24.72
		c-1.65,0.95-3.82,0.48-4.82-1.15C165.27,104.12,165.68,102.42,167.81,101.19z"/>
	<path class="st13" d="M210.44,82.25l-42.81-24.72c-2.08-1.2-2.52-2.84-1.32-4.92c1.2-2.08,2.84-2.52,4.92-1.32l42.81,24.72
		c2.08,1.2,2.52,2.84,1.32,4.92C214.16,83.02,212.51,83.45,210.44,82.25z"/>
	<polygon class="st13" points="209.4,79.76 171.3,57.14 171.3,101.69 	"/>
</g>
<g>
	<polyline class="st14" points="264.57,97.24 257.65,101.58 257.65,106.54 268.18,103.94 	"/>
	<polygon class="st14" points="264.57,74.42 244.25,83.6 244.25,90.92 264.57,85.83 	"/>
	<path class="st15" d="M292.17,108c-2.4,0-3.6-1.2-3.6-3.6V76.03c0-2.4,1.2-3.6,3.6-3.6c2.4,0,3.6,1.2,3.6,3.6v28.36
		C295.77,106.8,294.57,108,292.17,108z"/>
	<path class="st15" d="M280.17,108c-2.4,0-3.6-1.2-3.6-3.6V57.6c0-2.4,1.2-3.6,3.6-3.6c2.4,0,3.6,1.2,3.6,3.6v46.8
		C283.78,106.8,282.58,108,280.17,108z"/>
	<path class="st14" d="M268.17,108c-2.4,0-3.6-1.2-3.6-3.6V61.38c0-2.4,1.2-3.6,3.6-3.6c2.4,0,3.6,1.2,3.6,3.6v43.02
		C271.78,106.8,270.58,108,268.17,108z"/>
	<path class="st15" d="M328.17,108c-2.4,0-3.6-1.2-3.6-3.6V76.03c0-2.4,1.2-3.6,3.6-3.6c2.4,0,3.6,1.2,3.6,3.6v28.36
		C331.77,106.8,330.57,108,328.17,108z"/>
	<path class="st15" d="M304.17,108c-2.4,0-3.6-1.2-3.6-3.6V66.92c0-2.4,1.2-3.6,3.6-3.6c2.4,0,3.6,1.2,3.6,3.6v37.47
		C307.77,106.8,306.57,108,304.17,108z"/>
	<path class="st15" d="M316.17,108c-2.4,0-3.6-1.2-3.6-3.6V57.6c0-2.4,1.2-3.6,3.6-3.6c2.4,0,3.6,1.2,3.6,3.6v46.8
		C319.77,106.8,318.57,108,316.17,108z"/>
	<g>
		<path class="st16" d="M288.57,39.6c0-2.4,1.2-3.6,3.6-3.6h36c2.4,0,3.6,1.2,3.6,3.6c0,2.4-1.2,3.6-3.6,3.6h-14.4v61.2
			c0,2.4-1.2,3.6-3.6,3.6s-3.6-1.2-3.6-3.6V43.2h-14.4C289.77,43.2,288.57,41.99,288.57,39.6z"/>
		<path class="st16" d="M376.38,77.67l12.54,25.09c0.29,0.58,0.44,1.13,0.44,1.64c0,0.94-0.36,1.78-1.09,2.51
			c-0.73,0.73-1.56,1.09-2.51,1.09c-1.53,0-2.62-0.67-3.27-2.01l-13.42-26.84c-0.33,0.03-0.77,0.06-1.31,0.06h-14.4v25.2
			c0,2.4-1.2,3.6-3.6,3.6c-2.4,0-3.6-1.2-3.6-3.6V39.6c0-2.4,1.2-3.6,3.6-3.6h18c6,0,11.1,2.1,15.3,6.3c4.2,4.2,6.3,9.3,6.3,15.3
			C389.36,67.52,385.04,74.21,376.38,77.67z M353.37,43.2V72h14.4c4.04,0,7.44-1.39,10.23-4.18c2.78-2.78,4.17-6.19,4.17-10.23
			s-1.39-7.44-4.17-10.23c-2.78-2.78-6.19-4.17-10.23-4.17H353.37z"/>
		<path class="st16" d="M454.16,104.4c0,2.4-1.2,3.6-3.6,3.6c-1.74,0-2.89-0.82-3.44-2.45l-5.18-15.55h-25.96l-5.18,15.55
			c-0.55,1.63-1.69,2.45-3.44,2.45c-2.4,0-3.6-1.2-3.6-3.6c0-0.44,0.06-0.82,0.16-1.15l21.44-64.36c0.66-1.92,1.85-2.89,3.6-2.89
			c1.75,0,2.93,0.93,3.55,2.78L454,103.25C454.11,103.58,454.16,103.95,454.16,104.4z M428.96,51.05l-10.58,31.74h21.16
			L428.96,51.05z"/>
		<path class="st16" d="M493.76,107.99c-1.74,0-2.93-0.93-3.55-2.78l-21.49-64.47c-0.11-0.33-0.16-0.7-0.16-1.15
			c0-2.4,1.2-3.6,3.6-3.6c1.75,0,2.89,0.82,3.44,2.46l18.16,54.48l18.16-54.48c0.54-1.64,1.69-2.46,3.44-2.46c2.4,0,3.6,1.2,3.6,3.6
			c0,0.44-0.05,0.82-0.16,1.15l-21.49,64.47C496.68,107.07,495.5,107.99,493.76,107.99z"/>
		<path class="st16" d="M533.35,104.4V39.6c0-2.4,1.2-3.6,3.6-3.6h28.8c2.4,0,3.6,1.2,3.6,3.6c0,2.4-1.2,3.6-3.6,3.6h-25.2v21.6h18
			c2.4,0,3.6,1.2,3.6,3.6c0,2.4-1.2,3.6-3.6,3.6h-18v28.79h25.2c2.4,0,3.6,1.2,3.6,3.6c0,2.4-1.2,3.6-3.6,3.6h-28.8
			C534.55,107.99,533.35,106.8,533.35,104.4z"/>
		<path class="st16" d="M583.75,39.6c0-2.4,1.2-3.6,3.6-3.6c2.4,0,3.6,1.2,3.6,3.6v61.2h25.2c2.4,0,3.6,1.2,3.6,3.6
			c0,2.4-1.2,3.6-3.6,3.6h-28.8c-2.4,0-3.6-1.2-3.6-3.6V39.6z"/>
	</g>
	<polygon class="st14" points="271.78,74.42 292.1,83.6 292.1,90.92 271.78,85.83 	"/>
	<polyline class="st14" points="271.78,97.24 278.7,101.58 278.7,106.54 268.18,103.94 	"/>
</g>
</svg>
